<svg xmlns="http://www.w3.org/2000/svg" xmlns:xlink="http://www.w3.org/1999/xlink" width="1587" zoomAndPan="magnify" viewBox="0 0 1190.25 842.249997" height="1122" preserveAspectRatio="xMidYMid meet" version="1.0"><defs><clipPath id="afee123f57"><path d="M 322 4 L 871 4 L 871 841.183594 L 322 841.183594 Z M 322 4 " clip-rule="nonzero"/></clipPath></defs><path fill="#000000" d="M 756.574219 223.390625 L 753.105469 214.417969 C 752.667969 213.292969 752.175781 212.191406 751.628906 211.121094 C 751.082031 210.046875 750.480469 209.003906 749.824219 207.988281 C 749.171875 206.976562 748.46875 206 747.714844 205.058594 C 746.960938 204.117188 746.164062 203.214844 745.320312 202.355469 C 744.476562 201.496094 743.589844 200.679688 742.660156 199.910156 C 741.734375 199.140625 740.769531 198.417969 739.769531 197.746094 C 738.769531 197.074219 737.738281 196.453125 736.675781 195.886719 C 735.609375 195.320312 734.523438 194.808594 733.40625 194.351562 C 732.289062 193.894531 731.15625 193.496094 730 193.15625 C 728.84375 192.816406 727.671875 192.53125 726.488281 192.3125 C 725.304688 192.089844 724.113281 191.925781 722.910156 191.828125 C 721.710938 191.726562 720.507812 191.6875 719.300781 191.707031 C 718.097656 191.730469 716.898438 191.8125 715.699219 191.953125 C 714.503906 192.097656 713.316406 192.300781 712.140625 192.566406 C 710.964844 192.828125 709.804688 193.152344 708.664062 193.535156 C 707.519531 193.917969 706.398438 194.355469 705.300781 194.851562 L 643.042969 222.808594 C 638.3125 218.832031 633.160156 215.511719 627.578125 212.847656 C 622 210.1875 616.179688 208.269531 610.109375 207.09375 L 587.996094 140.152344 C 587.621094 139.011719 587.183594 137.890625 586.695312 136.789062 C 586.203125 135.691406 585.660156 134.621094 585.058594 133.578125 C 584.460938 132.535156 583.808594 131.523438 583.105469 130.546875 C 582.40625 129.566406 581.65625 128.628906 580.859375 127.726562 C 580.0625 126.824219 579.21875 125.96875 578.335938 125.152344 C 577.453125 124.335938 576.527344 123.566406 575.566406 122.84375 C 574.601562 122.121094 573.605469 121.449219 572.578125 120.828125 C 571.546875 120.207031 570.488281 119.640625 569.398438 119.125 C 568.3125 118.613281 567.199219 118.15625 566.066406 117.753906 C 564.929688 117.355469 563.78125 117.011719 562.609375 116.726562 C 561.441406 116.445312 560.261719 116.21875 559.070312 116.054688 C 557.878906 115.890625 556.679688 115.789062 555.480469 115.746094 C 554.277344 115.703125 553.074219 115.722656 551.875 115.800781 C 550.675781 115.882812 549.480469 116.023438 548.296875 116.222656 C 547.109375 116.421875 545.9375 116.683594 544.777344 117.003906 C 543.617188 117.324219 542.476562 117.699219 541.355469 118.136719 L 532.386719 121.605469 C 531.265625 122.042969 530.167969 122.535156 529.097656 123.082031 C 528.027344 123.632812 526.984375 124.234375 525.972656 124.886719 C 524.964844 125.542969 523.988281 126.246094 523.050781 127 C 522.113281 127.75 521.214844 128.550781 520.355469 129.394531 C 519.496094 130.238281 518.683594 131.125 517.914062 132.050781 C 517.148438 132.976562 516.429688 133.941406 515.757812 134.941406 C 515.085938 135.941406 514.46875 136.972656 513.902344 138.035156 C 513.335938 139.097656 512.824219 140.183594 512.371094 141.300781 C 511.914062 142.414062 511.515625 143.546875 511.175781 144.703125 C 510.835938 145.859375 510.554688 147.027344 510.332031 148.210938 C 510.109375 149.394531 509.949219 150.585938 509.847656 151.785156 C 509.746094 152.984375 509.703125 154.1875 509.726562 155.390625 C 509.746094 156.59375 509.828125 157.792969 509.96875 158.988281 C 510.113281 160.183594 510.3125 161.371094 510.578125 162.546875 C 510.839844 163.71875 511.160156 164.878906 511.539062 166.019531 C 511.921875 167.164062 512.355469 168.285156 512.851562 169.382812 L 540.828125 231.730469 C 536.859375 236.449219 533.542969 241.59375 530.882812 247.160156 C 528.222656 252.726562 526.304688 258.535156 525.125 264.589844 L 458.164062 286.734375 C 457.023438 287.113281 455.902344 287.546875 454.804688 288.039062 C 453.707031 288.53125 452.636719 289.078125 451.59375 289.675781 C 450.550781 290.277344 449.542969 290.929688 448.566406 291.632812 C 447.589844 292.335938 446.652344 293.085938 445.75 293.882812 C 444.851562 294.679688 443.992188 295.523438 443.179688 296.40625 C 442.363281 297.292969 441.59375 298.214844 440.875 299.179688 C 440.152344 300.140625 439.480469 301.136719 438.863281 302.167969 C 438.242188 303.199219 437.675781 304.261719 437.160156 305.347656 C 436.648438 306.4375 436.191406 307.550781 435.792969 308.683594 C 435.390625 309.820312 435.050781 310.972656 434.765625 312.140625 C 434.484375 313.308594 434.261719 314.492188 434.097656 315.683594 C 433.933594 316.875 433.832031 318.074219 433.789062 319.277344 C 433.746094 320.476562 433.765625 321.679688 433.84375 322.878906 C 433.925781 324.082031 434.066406 325.273438 434.265625 326.460938 C 434.464844 327.648438 434.726562 328.820312 435.046875 329.980469 C 435.367188 331.140625 435.742188 332.28125 436.179688 333.40625 L 439.644531 342.378906 C 440.082031 343.503906 440.574219 344.601562 441.121094 345.675781 C 441.667969 346.75 442.265625 347.792969 442.921875 348.808594 C 443.574219 349.820312 444.277344 350.796875 445.027344 351.742188 C 445.78125 352.683594 446.578125 353.585938 447.421875 354.445312 C 448.265625 355.304688 449.152344 356.121094 450.078125 356.894531 C 451.003906 357.664062 451.964844 358.386719 452.964844 359.058594 C 453.964844 359.734375 454.996094 360.355469 456.058594 360.921875 C 457.121094 361.492188 458.210938 362.003906 459.324219 362.464844 C 460.441406 362.921875 461.574219 363.320312 462.730469 363.664062 C 463.886719 364.007812 465.054688 364.289062 466.238281 364.515625 C 467.421875 364.738281 468.617188 364.902344 469.816406 365.003906 C 471.015625 365.109375 472.21875 365.148438 473.425781 365.132812 C 474.628906 365.113281 475.832031 365.03125 477.027344 364.890625 C 478.222656 364.75 479.410156 364.546875 480.585938 364.285156 C 481.761719 364.023438 482.921875 363.703125 484.066406 363.324219 C 485.210938 362.945312 486.332031 362.507812 487.433594 362.015625 L 549.742188 334.023438 C 554.472656 338 559.628906 341.320312 565.207031 343.980469 C 570.785156 346.644531 576.609375 348.5625 582.675781 349.734375 L 604.808594 416.730469 C 605.1875 417.875 605.625 418.992188 606.117188 420.089844 C 606.609375 421.1875 607.15625 422.257812 607.757812 423.300781 C 608.359375 424.339844 609.007812 425.351562 609.710938 426.324219 C 610.414062 427.300781 611.164062 428.238281 611.964844 429.140625 C 612.761719 430.039062 613.601562 430.894531 614.488281 431.710938 C 615.371094 432.523438 616.296875 433.292969 617.257812 434.015625 C 618.21875 434.734375 619.214844 435.40625 620.246094 436.027344 C 621.277344 436.644531 622.335938 437.210938 623.421875 437.726562 C 624.507812 438.238281 625.621094 438.695312 626.753906 439.09375 C 627.886719 439.496094 629.039062 439.835938 630.207031 440.121094 C 631.375 440.40625 632.554688 440.628906 633.746094 440.792969 C 634.9375 440.957031 636.132812 441.0625 637.332031 441.105469 C 638.535156 441.148438 639.734375 441.128906 640.933594 441.050781 C 642.132812 440.972656 643.328125 440.835938 644.511719 440.636719 C 645.699219 440.4375 646.871094 440.175781 648.03125 439.859375 C 649.1875 439.539062 650.328125 439.164062 651.449219 438.730469 L 660.402344 435.261719 C 661.523438 434.824219 662.617188 434.328125 663.6875 433.78125 C 664.757812 433.230469 665.796875 432.628906 666.804688 431.972656 C 667.8125 431.316406 668.789062 430.613281 669.726562 429.859375 C 670.664062 429.105469 671.558594 428.304688 672.417969 427.460938 C 673.273438 426.617188 674.085938 425.730469 674.851562 424.804688 C 675.617188 423.875 676.335938 422.914062 677.003906 421.914062 C 677.675781 420.914062 678.289062 419.882812 678.855469 418.820312 C 679.421875 417.757812 679.929688 416.667969 680.382812 415.554688 C 680.839844 414.441406 681.234375 413.304688 681.574219 412.152344 C 681.914062 410.996094 682.195312 409.828125 682.414062 408.644531 C 682.636719 407.460938 682.796875 406.269531 682.898438 405.070312 C 682.996094 403.871094 683.035156 402.671875 683.015625 401.46875 C 682.992188 400.265625 682.910156 399.066406 682.769531 397.871094 C 682.625 396.675781 682.421875 395.492188 682.160156 394.316406 C 681.894531 393.144531 681.574219 391.984375 681.195312 390.84375 C 680.8125 389.703125 680.375 388.582031 679.882812 387.484375 L 651.90625 325.140625 C 656.363281 319.835938 659.996094 314.015625 662.796875 307.679688 C 664.988281 302.695312 666.597656 297.53125 667.628906 292.183594 L 734.566406 270.039062 C 735.710938 269.664062 736.828125 269.226562 737.925781 268.738281 C 739.023438 268.246094 740.09375 267.699219 741.136719 267.097656 C 742.179688 266.5 743.191406 265.847656 744.167969 265.144531 C 745.144531 264.441406 746.082031 263.691406 746.980469 262.894531 C 747.882812 262.097656 748.738281 261.253906 749.554688 260.371094 C 750.371094 259.484375 751.136719 258.5625 751.859375 257.597656 C 752.582031 256.636719 753.25 255.636719 753.871094 254.605469 C 754.492188 253.574219 755.058594 252.515625 755.570312 251.425781 C 756.082031 250.339844 756.539062 249.226562 756.941406 248.09375 C 757.339844 246.957031 757.683594 245.804688 757.964844 244.636719 C 758.25 243.464844 758.472656 242.285156 758.636719 241.09375 C 758.800781 239.902344 758.902344 238.703125 758.945312 237.5 C 758.988281 236.296875 758.96875 235.097656 758.886719 233.894531 C 758.808594 232.695312 758.667969 231.5 758.46875 230.316406 C 758.265625 229.128906 758.007812 227.957031 757.6875 226.796875 C 757.367188 225.636719 756.988281 224.492188 756.554688 223.371094 Z M 541.390625 153.195312 C 541.605469 152.660156 541.917969 152.191406 542.328125 151.785156 C 542.738281 151.382812 543.210938 151.078125 543.75 150.871094 L 552.703125 147.402344 C 552.964844 147.300781 553.238281 147.230469 553.515625 147.1875 C 553.792969 147.144531 554.074219 147.128906 554.355469 147.140625 C 554.636719 147.152344 554.914062 147.191406 555.183594 147.257812 C 555.457031 147.328125 555.722656 147.421875 555.976562 147.542969 C 556.230469 147.664062 556.46875 147.808594 556.695312 147.980469 C 556.917969 148.148438 557.125 148.339844 557.3125 148.550781 C 557.5 148.761719 557.664062 148.988281 557.804688 149.234375 C 557.945312 149.476562 558.058594 149.730469 558.148438 150 L 577.484375 208.277344 C 573.703125 209.285156 570.03125 210.59375 566.464844 212.199219 L 541.445312 156.449219 C 540.960938 155.371094 540.945312 154.289062 541.390625 153.195312 Z M 474.523438 333.386719 C 474.261719 333.503906 473.992188 333.59375 473.714844 333.65625 C 473.4375 333.714844 473.15625 333.75 472.871094 333.753906 C 472.585938 333.761719 472.304688 333.734375 472.023438 333.683594 C 471.742188 333.632812 471.46875 333.550781 471.207031 333.441406 C 470.941406 333.335938 470.691406 333.203125 470.453125 333.042969 C 470.21875 332.882812 470 332.703125 469.800781 332.5 C 469.597656 332.296875 469.421875 332.074219 469.265625 331.835938 C 469.109375 331.597656 468.980469 331.34375 468.875 331.078125 L 465.410156 322.125 C 465.308594 321.859375 465.238281 321.589844 465.195312 321.308594 C 465.152344 321.03125 465.136719 320.753906 465.148438 320.46875 C 465.160156 320.1875 465.199219 319.910156 465.265625 319.636719 C 465.335938 319.363281 465.429688 319.101562 465.550781 318.847656 C 465.671875 318.59375 465.816406 318.351562 465.988281 318.128906 C 466.15625 317.902344 466.347656 317.695312 466.558594 317.511719 C 466.769531 317.324219 466.996094 317.160156 467.238281 317.019531 C 467.484375 316.878906 467.738281 316.761719 468.003906 316.671875 L 526.304688 297.289062 C 527.328125 301.066406 528.644531 304.734375 530.261719 308.296875 Z M 564.976562 305.136719 C 564.757812 304.882812 564.539062 304.628906 564.320312 304.355469 L 564.140625 304.121094 C 562.976562 302.65625 561.917969 301.125 560.960938 299.515625 C 560.003906 297.910156 559.164062 296.246094 558.433594 294.523438 C 557.707031 292.800781 557.097656 291.039062 556.609375 289.234375 C 556.121094 287.429688 555.757812 285.597656 555.519531 283.746094 C 555.28125 281.890625 555.167969 280.027344 555.183594 278.160156 C 555.199219 276.289062 555.339844 274.429688 555.609375 272.578125 C 555.875 270.730469 556.269531 268.90625 556.785156 267.109375 C 557.300781 265.3125 557.9375 263.558594 558.691406 261.847656 C 561.21875 256.0625 564.890625 251.132812 569.714844 247.0625 C 571.554688 245.484375 573.523438 244.082031 575.613281 242.851562 C 577.703125 241.625 579.886719 240.589844 582.160156 239.746094 C 584.433594 238.90625 586.765625 238.269531 589.148438 237.84375 C 591.535156 237.414062 593.941406 237.199219 596.367188 237.195312 L 597.855469 237.195312 C 599.921875 237.265625 601.972656 237.492188 604.003906 237.871094 C 606.039062 238.25 608.03125 238.78125 609.984375 239.460938 C 611.9375 240.140625 613.832031 240.964844 615.660156 241.929688 C 617.488281 242.894531 619.238281 243.988281 620.902344 245.21875 C 622.566406 246.445312 624.128906 247.792969 625.589844 249.257812 C 627.050781 250.71875 628.398438 252.285156 629.625 253.953125 C 630.847656 255.617188 631.945312 257.367188 632.90625 259.199219 C 633.871094 261.03125 634.691406 262.921875 635.367188 264.878906 C 636.046875 266.832031 636.574219 268.828125 636.953125 270.863281 C 637.328125 272.898438 637.554688 274.949219 637.621094 277.019531 C 637.691406 279.085938 637.605469 281.148438 637.363281 283.203125 C 637.121094 285.257812 636.726562 287.285156 636.183594 289.28125 C 635.636719 291.277344 634.941406 293.21875 634.105469 295.109375 C 633.265625 297.003906 632.289062 298.820312 631.175781 300.566406 C 630.0625 302.308594 628.828125 303.960938 627.464844 305.519531 C 626.105469 307.078125 624.632812 308.523438 623.054688 309.859375 C 619.691406 312.707031 615.972656 314.960938 611.890625 316.621094 C 607.8125 318.28125 603.574219 319.269531 599.179688 319.578125 C 597.578125 319.6875 595.976562 319.703125 594.371094 319.621094 C 592.769531 319.542969 591.175781 319.371094 589.589844 319.105469 C 588.007812 318.839844 586.445312 318.484375 584.902344 318.035156 C 583.359375 317.585938 581.851562 317.050781 580.371094 316.425781 C 578.890625 315.800781 577.453125 315.089844 576.058594 314.296875 C 574.660156 313.503906 573.316406 312.632812 572.019531 311.683594 C 570.726562 310.734375 569.492188 309.710938 568.316406 308.617188 C 567.140625 307.519531 566.035156 306.363281 564.992188 305.136719 Z M 651.34375 403.6875 C 651.128906 404.226562 650.816406 404.695312 650.40625 405.097656 C 649.996094 405.503906 649.519531 405.808594 648.980469 406.015625 L 640.03125 409.484375 C 639.765625 409.582031 639.496094 409.652344 639.21875 409.695312 C 638.941406 409.738281 638.660156 409.753906 638.378906 409.742188 C 638.097656 409.726562 637.824219 409.6875 637.550781 409.617188 C 637.277344 409.550781 637.015625 409.457031 636.761719 409.335938 C 636.507812 409.214844 636.265625 409.070312 636.042969 408.898438 C 635.816406 408.730469 635.613281 408.539062 635.425781 408.332031 C 635.238281 408.121094 635.074219 407.894531 634.933594 407.652344 C 634.789062 407.40625 634.675781 407.152344 634.585938 406.886719 L 615.25 348.519531 C 619.019531 347.496094 622.6875 346.183594 626.25 344.578125 L 651.289062 400.363281 C 651.527344 400.886719 651.648438 401.4375 651.660156 402.011719 C 651.667969 402.585938 651.5625 403.140625 651.34375 403.671875 Z M 727.214844 238.085938 C 726.976562 238.609375 726.640625 239.0625 726.210938 239.445312 C 725.78125 239.828125 725.292969 240.109375 724.746094 240.285156 L 666.449219 259.558594 C 665.4375 255.777344 664.132812 252.101562 662.527344 248.53125 L 718.246094 223.5 C 718.507812 223.382812 718.777344 223.292969 719.054688 223.230469 C 719.332031 223.167969 719.613281 223.136719 719.898438 223.128906 C 720.183594 223.125 720.464844 223.148438 720.746094 223.203125 C 721.027344 223.253906 721.300781 223.335938 721.5625 223.441406 C 721.828125 223.550781 722.078125 223.683594 722.316406 223.84375 C 722.550781 224 722.769531 224.183594 722.96875 224.386719 C 723.171875 224.589844 723.347656 224.808594 723.503906 225.050781 C 723.660156 225.289062 723.789062 225.539062 723.890625 225.804688 L 727.359375 234.761719 C 727.566406 235.300781 727.65625 235.855469 727.632812 236.429688 C 727.605469 237.003906 727.46875 237.550781 727.214844 238.070312 Z M 727.214844 238.085938 " fill-opacity="1" fill-rule="nonzero"/><path fill="#000000" d="M 596.367188 504.820312 C 606.574219 504.824219 616.734375 504.144531 626.851562 502.785156 C 645.242188 500.316406 663.054688 495.628906 680.28125 488.726562 C 686.757812 486.132812 693.101562 483.246094 699.3125 480.066406 C 705.519531 476.886719 711.570312 473.425781 717.460938 469.6875 C 723.351562 465.949219 729.058594 461.949219 734.578125 457.683594 C 740.097656 453.417969 745.414062 448.90625 750.515625 444.148438 C 755.621094 439.394531 760.496094 434.410156 765.140625 429.203125 C 769.785156 423.996094 774.179688 418.585938 778.328125 412.972656 C 782.472656 407.359375 786.351562 401.570312 789.960938 395.597656 C 793.574219 389.625 796.902344 383.5 799.945312 377.222656 C 801.5625 373.886719 803.097656 370.515625 804.550781 367.105469 C 806 363.699219 807.367188 360.253906 808.648438 356.78125 C 809.933594 353.304688 811.128906 349.796875 812.238281 346.261719 C 813.351562 342.726562 814.375 339.167969 815.308594 335.582031 C 816.246094 331.996094 817.089844 328.390625 817.851562 324.765625 C 818.609375 321.136719 819.277344 317.496094 819.859375 313.835938 C 820.4375 310.175781 820.925781 306.503906 821.328125 302.820312 C 821.726562 299.136719 822.035156 295.445312 822.253906 291.746094 C 822.472656 288.046875 822.597656 284.34375 822.636719 280.640625 C 822.671875 276.933594 822.617188 273.230469 822.472656 269.527344 C 822.328125 265.824219 822.089844 262.128906 821.765625 258.4375 C 821.4375 254.746094 821.019531 251.066406 820.511719 247.394531 C 820.003906 243.722656 819.40625 240.070312 818.722656 236.425781 C 818.035156 232.785156 817.257812 229.164062 816.394531 225.5625 C 815.527344 221.957031 814.574219 218.378906 813.535156 214.824219 C 812.496094 211.265625 811.367188 207.738281 810.15625 204.238281 C 808.941406 200.738281 807.640625 197.265625 806.257812 193.832031 C 804.875 190.394531 803.40625 186.992188 801.855469 183.628906 C 800.304688 180.261719 798.671875 176.9375 796.957031 173.652344 C 795.242188 170.371094 793.449219 167.128906 791.578125 163.933594 C 789.703125 160.734375 787.753906 157.585938 785.726562 154.488281 C 783.699219 151.386719 781.59375 148.335938 779.417969 145.339844 C 777.238281 142.34375 774.992188 139.402344 772.667969 136.515625 C 770.347656 133.628906 767.957031 130.800781 765.496094 128.03125 C 763.035156 125.261719 760.507812 122.554688 757.914062 119.910156 C 755.320312 117.265625 752.664062 114.683594 749.941406 112.171875 C 747.222656 109.65625 744.441406 107.210938 741.601562 104.832031 C 738.761719 102.453125 735.863281 100.148438 732.910156 97.914062 C 729.957031 95.675781 726.949219 93.515625 723.890625 91.429688 C 720.832031 89.339844 717.722656 87.328125 714.5625 85.394531 C 711.40625 83.460938 708.203125 81.605469 704.953125 79.828125 C 701.703125 78.050781 698.410156 76.351562 695.078125 74.738281 C 688.019531 71.3125 680.804688 68.265625 673.429688 65.59375 C 666.054688 62.921875 658.5625 60.636719 650.953125 58.746094 C 643.339844 56.851562 635.652344 55.355469 627.882812 54.261719 C 620.117188 53.167969 612.316406 52.480469 604.476562 52.195312 C 596.640625 51.914062 588.808594 52.039062 580.980469 52.570312 C 573.15625 53.101562 565.378906 54.035156 557.652344 55.375 C 549.921875 56.714844 542.285156 58.449219 534.738281 60.585938 C 527.191406 62.71875 519.773438 65.238281 512.488281 68.140625 C 506 70.722656 499.648438 73.597656 493.429688 76.765625 C 487.210938 79.9375 481.152344 83.386719 475.25 87.121094 C 469.351562 90.855469 463.640625 94.851562 458.113281 99.117188 C 452.585938 103.382812 447.265625 107.894531 442.160156 112.652344 C 437.050781 117.410156 432.171875 122.394531 427.527344 127.609375 C 422.882812 132.820312 418.488281 138.238281 414.34375 143.859375 C 410.203125 149.476562 406.328125 155.277344 402.726562 161.257812 C 399.121094 167.238281 395.800781 173.375 392.769531 179.664062 C 389.347656 186.726562 386.300781 193.945312 383.628906 201.324219 C 380.957031 208.703125 378.675781 216.203125 376.785156 223.816406 C 374.890625 231.433594 373.398438 239.125 372.304688 246.898438 C 371.210938 254.667969 370.523438 262.476562 370.242188 270.316406 C 369.957031 278.160156 370.082031 285.996094 370.613281 293.828125 C 371.144531 301.65625 372.078125 309.4375 373.417969 317.171875 C 374.753906 324.902344 376.492188 332.546875 378.625 340.097656 C 380.757812 347.648438 383.273438 355.070312 386.175781 362.359375 C 388.648438 368.558594 391.390625 374.632812 394.402344 380.589844 C 397.410156 386.542969 400.679688 392.355469 404.203125 398.019531 C 407.726562 403.683594 411.496094 409.183594 415.503906 414.515625 C 419.515625 419.847656 423.753906 424.992188 428.21875 429.945312 C 432.6875 434.902344 437.363281 439.652344 442.246094 444.195312 C 447.132812 448.738281 452.210938 453.054688 457.476562 457.148438 C 462.746094 461.238281 468.183594 465.089844 473.792969 468.703125 C 479.402344 472.3125 485.15625 475.667969 491.0625 478.769531 C 493.261719 479.96875 495.367188 481.003906 497.417969 482.003906 L 497.671875 482.128906 C 508.417969 487.378906 519.511719 491.734375 530.957031 495.195312 C 542.402344 498.65625 554.050781 501.179688 565.902344 502.765625 C 576.011719 504.132812 586.164062 504.816406 596.367188 504.820312 Z M 511.160156 453.808594 C 509.347656 452.917969 507.53125 451.992188 506.042969 451.210938 L 505.75 451.066406 C 501.839844 449.015625 498.003906 446.832031 494.242188 444.519531 C 490.480469 442.210938 486.800781 439.769531 483.203125 437.207031 C 479.609375 434.644531 476.101562 431.964844 472.6875 429.160156 C 469.273438 426.359375 465.960938 423.445312 462.746094 420.417969 C 459.527344 417.390625 456.417969 414.257812 453.417969 411.019531 C 450.414062 407.78125 447.523438 404.441406 444.75 401.007812 C 441.972656 397.570312 439.316406 394.046875 436.78125 390.429688 C 434.246094 386.8125 431.835938 383.113281 429.550781 379.332031 C 427.269531 375.550781 425.113281 371.699219 423.09375 367.769531 C 421.070312 363.84375 419.183594 359.851562 417.433594 355.796875 C 415.683594 351.742188 414.074219 347.628906 412.601562 343.464844 C 411.128906 339.300781 409.804688 335.089844 408.617188 330.832031 C 407.433594 326.578125 406.394531 322.285156 405.503906 317.960938 C 404.609375 313.632812 403.863281 309.28125 403.269531 304.902344 C 402.671875 300.527344 402.222656 296.132812 401.925781 291.726562 C 401.628906 287.320312 401.480469 282.90625 401.484375 278.488281 C 401.453125 271.140625 401.84375 263.8125 402.65625 256.511719 C 403.46875 249.207031 404.691406 241.972656 406.335938 234.808594 C 407.976562 227.648438 410.019531 220.601562 412.46875 213.675781 C 414.917969 206.746094 417.757812 199.980469 420.980469 193.378906 C 422.964844 189.285156 425.085938 185.261719 427.347656 181.3125 C 429.609375 177.367188 432.007812 173.503906 434.542969 169.722656 C 437.074219 165.945312 439.738281 162.257812 442.527344 158.667969 C 445.320312 155.074219 448.234375 151.582031 451.269531 148.195312 C 454.304688 144.804688 457.453125 141.527344 460.71875 138.359375 C 463.984375 135.191406 467.359375 132.144531 470.835938 129.214844 C 474.316406 126.28125 477.894531 123.476562 481.570312 120.796875 C 485.242188 118.117188 489.007812 115.566406 492.863281 113.152344 C 496.714844 110.734375 500.648438 108.457031 504.664062 106.316406 C 508.675781 104.175781 512.761719 102.179688 516.914062 100.324219 C 521.066406 98.46875 525.28125 96.765625 529.554688 95.207031 C 533.824219 93.648438 538.148438 92.238281 542.519531 90.984375 C 546.890625 89.726562 551.300781 88.628906 555.75 87.679688 C 560.199219 86.734375 564.675781 85.945312 569.179688 85.3125 C 573.679688 84.679688 578.203125 84.207031 582.738281 83.890625 C 587.277344 83.574219 591.820312 83.417969 596.367188 83.421875 C 603.707031 83.390625 611.023438 83.78125 618.316406 84.59375 C 625.613281 85.40625 632.835938 86.632812 639.988281 88.273438 C 647.144531 89.914062 654.179688 91.957031 661.101562 94.40625 C 668.019531 96.851562 674.777344 99.6875 681.371094 102.914062 C 685.464844 104.894531 689.484375 107.019531 693.429688 109.28125 C 697.375 111.546875 701.238281 113.945312 705.015625 116.480469 C 708.792969 119.015625 712.476562 121.679688 716.066406 124.472656 C 719.65625 127.265625 723.144531 130.179688 726.53125 133.214844 C 729.917969 136.253906 733.195312 139.40625 736.359375 142.671875 C 739.523438 145.941406 742.574219 149.316406 745.503906 152.796875 C 748.429688 156.277344 751.234375 159.855469 753.914062 163.535156 C 756.59375 167.210938 759.140625 170.976562 761.554688 174.835938 C 763.96875 178.691406 766.246094 182.625 768.386719 186.640625 C 770.523438 190.65625 772.519531 194.742188 774.375 198.898438 C 776.226562 203.054688 777.933594 207.269531 779.492188 211.546875 C 781.046875 215.820312 782.453125 220.144531 783.710938 224.519531 C 784.964844 228.894531 786.066406 233.304688 787.011719 237.757812 C 787.957031 242.207031 788.746094 246.6875 789.378906 251.191406 C 790.011719 255.699219 790.484375 260.222656 790.800781 264.761719 C 791.113281 269.300781 791.269531 273.847656 791.269531 278.398438 C 791.292969 285.742188 790.902344 293.0625 790.085938 300.363281 C 789.273438 307.660156 788.046875 314.890625 786.402344 322.046875 C 784.761719 329.207031 782.714844 336.246094 780.261719 343.171875 C 777.8125 350.09375 774.976562 356.855469 771.75 363.449219 C 769.125 368.863281 766.257812 374.144531 763.144531 379.292969 C 760.035156 384.441406 756.691406 389.433594 753.121094 394.273438 C 749.546875 399.109375 745.757812 403.773438 741.753906 408.261719 C 737.75 412.75 733.550781 417.046875 729.148438 421.144531 C 724.75 425.246094 720.167969 429.136719 715.410156 432.8125 C 710.652344 436.488281 705.734375 439.9375 700.65625 443.160156 C 695.578125 446.382812 690.363281 449.363281 685.011719 452.105469 C 679.65625 454.84375 674.191406 457.332031 668.609375 459.566406 C 653.796875 465.503906 638.488281 469.539062 622.675781 471.667969 C 605.125 474.023438 587.574219 474.023438 570.023438 471.667969 C 559.835938 470.304688 549.824219 468.136719 539.988281 465.164062 C 530.152344 462.1875 520.613281 458.445312 511.378906 453.9375 Z M 511.160156 453.808594 " fill-opacity="1" fill-rule="nonzero"/><g clip-path="url(#afee123f57)"><path fill="#000000" d="M 832.609375 765.394531 L 646.894531 765.394531 L 646.894531 547.984375 C 664.429688 544.710938 681.480469 539.757812 698.039062 533.121094 C 705.882812 529.980469 713.566406 526.488281 721.089844 522.636719 C 728.613281 518.785156 735.941406 514.597656 743.078125 510.066406 C 750.210938 505.539062 757.125 500.691406 763.8125 495.523438 C 770.5 490.359375 776.9375 484.894531 783.121094 479.132812 C 789.304688 473.371094 795.207031 467.335938 800.835938 461.027344 C 806.460938 454.722656 811.785156 448.167969 816.808594 441.367188 C 821.828125 434.566406 826.527344 427.550781 830.898438 420.316406 C 835.273438 413.085938 839.304688 405.664062 842.992188 398.058594 C 845.0625 393.785156 847.023438 389.460938 848.867188 385.085938 C 850.714844 380.710938 852.445312 376.289062 854.0625 371.824219 C 855.675781 367.359375 857.175781 362.855469 858.558594 358.3125 C 859.941406 353.769531 861.207031 349.191406 862.351562 344.585938 C 863.496094 339.976562 864.523438 335.339844 865.425781 330.679688 C 866.332031 326.015625 867.117188 321.335938 867.777344 316.632812 C 868.4375 311.929688 868.980469 307.214844 869.394531 302.484375 C 869.8125 297.75 870.109375 293.011719 870.277344 288.269531 C 870.449219 283.523438 870.5 278.773438 870.421875 274.027344 C 870.347656 269.277344 870.152344 264.535156 869.828125 259.796875 C 869.507812 255.058594 869.066406 250.332031 868.5 245.617188 C 867.933594 240.902344 867.242188 236.203125 866.433594 231.523438 C 865.625 226.847656 864.691406 222.191406 863.640625 217.558594 C 862.589844 212.929688 861.417969 208.328125 860.128906 203.757812 C 858.839844 199.1875 857.429688 194.65625 855.90625 190.15625 C 854.378906 185.660156 852.738281 181.207031 850.984375 176.792969 C 847.859375 168.933594 844.378906 161.234375 840.542969 153.695312 C 836.707031 146.160156 832.527344 138.816406 828.007812 131.667969 C 823.488281 124.519531 818.648438 117.59375 813.484375 110.894531 C 808.324219 104.195312 802.859375 97.75 797.101562 91.558594 C 791.339844 85.367188 785.304688 79.457031 778.996094 73.828125 C 772.683594 68.199219 766.128906 62.871094 759.324219 57.851562 C 752.519531 52.832031 745.496094 48.136719 738.257812 43.769531 C 731.015625 39.402344 723.589844 35.378906 715.976562 31.703125 C 711.707031 29.628906 707.382812 27.671875 703.011719 25.824219 C 698.636719 23.976562 694.222656 22.246094 689.757812 20.628906 C 685.296875 19.011719 680.792969 17.511719 676.253906 16.125 C 671.714844 14.742188 667.140625 13.476562 662.535156 12.332031 C 657.929688 11.1875 653.296875 10.160156 648.636719 9.253906 C 643.976562 8.351562 639.296875 7.566406 634.597656 6.902344 C 629.898438 6.242188 625.183594 5.703125 620.457031 5.285156 C 615.726562 4.867188 610.992188 4.574219 606.25 4.402344 C 601.507812 4.230469 596.761719 4.179688 592.015625 4.257812 C 587.269531 4.332031 582.53125 4.53125 577.792969 4.851562 C 573.058594 5.171875 568.335938 5.617188 563.621094 6.183594 C 558.910156 6.75 554.214844 7.4375 549.539062 8.246094 C 544.863281 9.058594 540.210938 9.988281 535.582031 11.042969 C 530.953125 12.09375 526.355469 13.265625 521.789062 14.554688 C 517.21875 15.847656 512.691406 17.257812 508.195312 18.78125 C 503.699219 20.308594 499.25 21.949219 494.839844 23.707031 C 486.984375 26.832031 479.289062 30.3125 471.753906 34.152344 C 464.222656 37.992188 456.882812 42.175781 449.738281 46.695312 C 442.59375 51.21875 435.671875 56.0625 428.976562 61.226562 C 422.28125 66.390625 415.839844 71.855469 409.652344 77.621094 C 403.464844 83.382812 397.558594 89.421875 391.929688 95.738281 C 386.304688 102.050781 380.980469 108.609375 375.964844 115.417969 C 370.945312 122.226562 366.253906 129.253906 361.890625 136.496094 C 357.523438 143.742188 353.503906 151.171875 349.828125 158.792969 C 347.757812 163.066406 345.800781 167.390625 343.957031 171.765625 C 342.109375 176.140625 340.378906 180.558594 338.761719 185.023438 C 337.144531 189.488281 335.648438 193.992188 334.265625 198.535156 C 332.882812 203.078125 331.617188 207.65625 330.472656 212.265625 C 329.328125 216.875 328.300781 221.507812 327.394531 226.171875 C 326.492188 230.832031 325.707031 235.515625 325.046875 240.21875 C 324.382812 244.917969 323.84375 249.636719 323.425781 254.367188 C 323.011719 259.097656 322.714844 263.835938 322.542969 268.582031 C 322.375 273.328125 322.324219 278.074219 322.398438 282.824219 C 322.476562 287.570312 322.671875 292.316406 322.996094 297.050781 C 323.316406 301.789062 323.757812 306.515625 324.324219 311.230469 C 324.890625 315.949219 325.578125 320.644531 326.390625 325.324219 C 327.199219 330.003906 328.128906 334.660156 329.183594 339.289062 C 330.234375 343.921875 331.40625 348.519531 332.695312 353.089844 C 333.984375 357.660156 335.394531 362.195312 336.917969 366.691406 C 338.445312 371.1875 340.085938 375.644531 341.839844 380.054688 C 344.835938 387.5625 348.160156 394.925781 351.804688 402.140625 C 355.453125 409.355469 359.410156 416.394531 363.679688 423.257812 C 367.953125 430.121094 372.515625 436.78125 377.375 443.242188 C 382.234375 449.703125 387.371094 455.933594 392.78125 461.9375 C 398.195312 467.941406 403.859375 473.695312 409.78125 479.199219 C 415.699219 484.699219 421.851562 489.929688 428.234375 494.886719 C 434.617188 499.847656 441.207031 504.511719 448.003906 508.886719 C 454.800781 513.257812 461.777344 517.324219 468.929688 521.078125 C 471.546875 522.515625 474.085938 523.75 476.539062 524.964844 L 476.917969 525.148438 C 498.882812 535.878906 521.878906 543.476562 545.910156 547.945312 L 545.910156 765.394531 L 360.140625 765.394531 C 358.902344 765.394531 357.667969 765.457031 356.4375 765.578125 C 355.203125 765.699219 353.980469 765.878906 352.765625 766.121094 C 351.550781 766.363281 350.351562 766.664062 349.167969 767.023438 C 347.980469 767.382812 346.816406 767.800781 345.671875 768.273438 C 344.527344 768.75 343.410156 769.277344 342.320312 769.863281 C 341.226562 770.445312 340.164062 771.082031 339.136719 771.769531 C 338.105469 772.457031 337.113281 773.195312 336.15625 773.980469 C 335.199219 774.769531 334.28125 775.597656 333.40625 776.476562 C 332.53125 777.351562 331.699219 778.269531 330.914062 779.226562 C 330.128906 780.183594 329.394531 781.179688 328.703125 782.207031 C 328.015625 783.238281 327.382812 784.300781 326.796875 785.390625 C 326.214844 786.484375 325.683594 787.605469 325.210938 788.75 C 324.738281 789.894531 324.320312 791.058594 323.960938 792.242188 C 323.601562 793.429688 323.300781 794.628906 323.058594 795.84375 C 322.816406 797.0625 322.636719 798.285156 322.515625 799.519531 C 322.394531 800.75 322.332031 801.988281 322.332031 803.226562 C 322.332031 804.464844 322.394531 805.699219 322.515625 806.933594 C 322.636719 808.167969 322.816406 809.390625 323.058594 810.605469 C 323.300781 811.820312 323.601562 813.023438 323.960938 814.207031 C 324.320312 815.394531 324.738281 816.558594 325.210938 817.703125 C 325.683594 818.847656 326.214844 819.964844 326.796875 821.058594 C 327.382812 822.152344 328.015625 823.214844 328.703125 824.242188 C 329.394531 825.273438 330.128906 826.269531 330.914062 827.226562 C 331.699219 828.183594 332.53125 829.101562 333.40625 829.976562 C 334.28125 830.851562 335.199219 831.683594 336.15625 832.46875 C 337.113281 833.253906 338.105469 833.992188 339.136719 834.679688 C 340.164062 835.371094 341.226562 836.003906 342.320312 836.589844 C 343.410156 837.171875 344.527344 837.703125 345.671875 838.175781 C 346.816406 838.652344 347.980469 839.066406 349.167969 839.429688 C 350.351562 839.789062 351.550781 840.089844 352.765625 840.328125 C 353.980469 840.570312 355.203125 840.753906 356.4375 840.875 C 357.667969 840.996094 358.902344 841.058594 360.140625 841.058594 L 832.609375 841.058594 C 833.847656 841.058594 835.082031 840.996094 836.316406 840.875 C 837.546875 840.753906 838.769531 840.570312 839.984375 840.328125 C 841.199219 840.089844 842.398438 839.789062 843.585938 839.429688 C 844.769531 839.066406 845.933594 838.652344 847.078125 838.175781 C 848.222656 837.703125 849.339844 837.171875 850.433594 836.589844 C 851.523438 836.003906 852.585938 835.371094 853.613281 834.679688 C 854.644531 833.992188 855.636719 833.253906 856.59375 832.46875 C 857.550781 831.683594 858.46875 830.851562 859.34375 829.976562 C 860.21875 829.101562 861.050781 828.183594 861.835938 827.226562 C 862.621094 826.269531 863.359375 825.273438 864.046875 824.242188 C 864.734375 823.214844 865.371094 822.152344 865.953125 821.058594 C 866.539062 819.964844 867.066406 818.847656 867.539062 817.703125 C 868.015625 816.558594 868.429688 815.394531 868.789062 814.207031 C 869.148438 813.023438 869.449219 811.820312 869.691406 810.605469 C 869.933594 809.390625 870.113281 808.167969 870.238281 806.933594 C 870.359375 805.699219 870.417969 804.464844 870.417969 803.226562 C 870.417969 801.988281 870.359375 800.75 870.238281 799.519531 C 870.113281 798.285156 869.933594 797.0625 869.691406 795.84375 C 869.449219 794.628906 869.148438 793.429688 868.789062 792.242188 C 868.429688 791.058594 868.015625 789.894531 867.539062 788.75 C 867.066406 787.605469 866.539062 786.484375 865.953125 785.390625 C 865.371094 784.300781 864.734375 783.238281 864.046875 782.207031 C 863.359375 781.179688 862.621094 780.183594 861.835938 779.226562 C 861.050781 778.269531 860.21875 777.351562 859.34375 776.476562 C 858.46875 775.597656 857.550781 774.769531 856.59375 773.980469 C 855.636719 773.195312 854.644531 772.457031 853.613281 771.769531 C 852.585938 771.082031 851.523438 770.445312 850.433594 769.863281 C 849.339844 769.277344 848.222656 768.75 847.078125 768.273438 C 845.933594 767.800781 844.769531 767.382812 843.585938 767.023438 C 842.398438 766.664062 841.199219 766.363281 839.984375 766.121094 C 838.769531 765.878906 837.546875 765.699219 836.316406 765.578125 C 835.082031 765.457031 833.847656 765.394531 832.609375 765.394531 Z M 490.210938 496.773438 C 487.941406 495.664062 485.796875 494.609375 483.820312 493.519531 L 483.527344 493.355469 C 478.65625 490.800781 473.878906 488.085938 469.195312 485.207031 C 464.507812 482.324219 459.925781 479.289062 455.449219 476.097656 C 450.96875 472.90625 446.605469 469.566406 442.351562 466.078125 C 438.101562 462.585938 433.972656 458.957031 429.96875 455.1875 C 425.960938 451.417969 422.089844 447.515625 418.351562 443.480469 C 414.613281 439.445312 411.015625 435.289062 407.558594 431.011719 C 404.101562 426.730469 400.792969 422.339844 397.636719 417.835938 C 394.480469 413.332031 391.476562 408.722656 388.632812 404.015625 C 385.789062 399.304688 383.109375 394.507812 380.589844 389.613281 C 378.074219 384.722656 375.722656 379.75 373.546875 374.699219 C 371.367188 369.648438 369.359375 364.53125 367.527344 359.339844 C 365.699219 354.152344 364.046875 348.910156 362.570312 343.609375 C 361.097656 338.308594 359.804688 332.964844 358.691406 327.574219 C 357.582031 322.1875 356.65625 316.765625 355.914062 311.316406 C 355.171875 305.863281 354.617188 300.390625 354.246094 294.902344 C 353.875 289.414062 353.691406 283.917969 353.695312 278.414062 C 353.664062 269.273438 354.15625 260.15625 355.167969 251.070312 C 356.179688 241.984375 357.707031 232.984375 359.753906 224.070312 C 361.796875 215.160156 364.34375 206.394531 367.394531 197.773438 C 370.441406 189.15625 373.976562 180.738281 377.988281 172.523438 C 380.457031 167.425781 383.101562 162.421875 385.917969 157.507812 C 388.738281 152.59375 391.722656 147.785156 394.878906 143.082031 C 398.035156 138.378906 401.351562 133.789062 404.828125 129.320312 C 408.304688 124.847656 411.929688 120.503906 415.710938 116.285156 C 419.492188 112.070312 423.417969 107.992188 427.480469 104.046875 C 431.546875 100.105469 435.746094 96.3125 440.078125 92.664062 C 444.410156 89.015625 448.867188 85.527344 453.441406 82.191406 C 458.019531 78.855469 462.707031 75.683594 467.503906 72.679688 C 472.304688 69.671875 477.203125 66.835938 482.199219 64.171875 C 487.195312 61.511719 492.28125 59.023438 497.449219 56.71875 C 502.621094 54.410156 507.867188 52.289062 513.1875 50.347656 C 518.507812 48.410156 523.886719 46.660156 529.332031 45.097656 C 534.773438 43.535156 540.261719 42.167969 545.800781 40.988281 C 551.339844 39.8125 556.910156 38.832031 562.519531 38.046875 C 568.125 37.257812 573.753906 36.671875 579.402344 36.277344 C 585.050781 35.886719 590.703125 35.691406 596.367188 35.699219 C 605.507812 35.664062 614.617188 36.15625 623.699219 37.167969 C 632.785156 38.179688 641.78125 39.710938 650.6875 41.757812 C 659.597656 43.800781 668.359375 46.351562 676.972656 49.402344 C 685.589844 52.453125 694.003906 55.988281 702.214844 60.003906 C 707.3125 62.472656 712.316406 65.117188 717.230469 67.933594 C 722.140625 70.753906 726.949219 73.742188 731.652344 76.898438 C 736.355469 80.050781 740.941406 83.371094 745.414062 86.847656 C 749.882812 90.324219 754.226562 93.953125 758.445312 97.734375 C 762.660156 101.519531 766.742188 105.445312 770.683594 109.511719 C 774.625 113.578125 778.417969 117.78125 782.066406 122.117188 C 785.714844 126.449219 789.207031 130.90625 792.539062 135.484375 C 795.875 140.0625 799.046875 144.753906 802.054688 149.554688 C 805.0625 154.355469 807.894531 159.257812 810.558594 164.257812 C 813.222656 169.257812 815.710938 174.34375 818.015625 179.519531 C 820.324219 184.695312 822.449219 189.941406 824.386719 195.265625 C 826.328125 200.589844 828.078125 205.972656 829.640625 211.421875 C 831.203125 216.867188 832.574219 222.359375 833.753906 227.902344 C 834.929688 233.445312 835.914062 239.023438 836.699219 244.632812 C 837.488281 250.246094 838.078125 255.875 838.46875 261.527344 C 838.863281 267.179688 839.058594 272.839844 839.054688 278.507812 C 839.085938 287.648438 838.597656 296.765625 837.582031 305.851562 C 836.570312 314.9375 835.042969 323.9375 832.996094 332.851562 C 830.953125 341.761719 828.40625 350.527344 825.355469 359.148438 C 822.308594 367.765625 818.777344 376.183594 814.761719 384.398438 C 811.492188 391.136719 807.921875 397.710938 804.046875 404.121094 C 800.171875 410.527344 796.011719 416.746094 791.5625 422.769531 C 787.113281 428.792969 782.394531 434.601562 777.410156 440.1875 C 772.425781 445.777344 767.191406 451.125 761.714844 456.226562 C 756.234375 461.332031 750.53125 466.171875 744.605469 470.75 C 738.679688 475.328125 732.554688 479.625 726.234375 483.632812 C 719.910156 487.644531 713.417969 491.355469 706.753906 494.769531 C 700.085938 498.179688 693.277344 501.273438 686.328125 504.058594 C 667.855469 511.4375 648.761719 516.4375 629.046875 519.0625 C 607.21875 521.992188 585.386719 521.992188 563.558594 519.0625 C 550.871094 517.363281 538.402344 514.664062 526.152344 510.957031 C 513.898438 507.25 502.019531 502.589844 490.519531 496.972656 Z M 837.183594 807.757812 C 836.578125 808.367188 835.878906 808.835938 835.085938 809.167969 C 834.292969 809.496094 833.46875 809.664062 832.609375 809.664062 L 360.140625 809.664062 C 359.71875 809.664062 359.300781 809.625 358.882812 809.542969 C 358.46875 809.460938 358.066406 809.335938 357.675781 809.175781 C 357.285156 809.011719 356.914062 808.8125 356.5625 808.578125 C 356.210938 808.34375 355.882812 808.078125 355.585938 807.777344 C 355.285156 807.476562 355.019531 807.152344 354.78125 806.800781 C 354.546875 806.449219 354.347656 806.074219 354.1875 805.683594 C 354.027344 805.292969 353.902344 804.890625 353.820312 804.476562 C 353.738281 804.058594 353.695312 803.640625 353.695312 803.214844 C 353.695312 802.792969 353.738281 802.375 353.820312 801.957031 C 353.902344 801.542969 354.027344 801.140625 354.1875 800.75 C 354.347656 800.359375 354.546875 799.984375 354.78125 799.632812 C 355.019531 799.28125 355.285156 798.957031 355.585938 798.65625 C 355.882812 798.355469 356.210938 798.089844 356.5625 797.855469 C 356.914062 797.621094 357.285156 797.421875 357.675781 797.257812 C 358.066406 797.097656 358.46875 796.972656 358.882812 796.890625 C 359.300781 796.808594 359.71875 796.769531 360.140625 796.769531 L 561.527344 796.769531 C 562.554688 796.769531 563.574219 796.667969 564.585938 796.464844 C 565.597656 796.265625 566.578125 795.96875 567.527344 795.574219 C 568.480469 795.179688 569.382812 794.695312 570.242188 794.121094 C 571.097656 793.550781 571.890625 792.898438 572.617188 792.171875 C 573.347656 791.441406 573.996094 790.648438 574.570312 789.792969 C 575.140625 788.933594 575.625 788.03125 576.019531 787.078125 C 576.414062 786.125 576.710938 785.144531 576.910156 784.132812 C 577.113281 783.125 577.210938 782.101562 577.210938 781.070312 L 577.210938 551.960938 C 583.585938 552.398438 589.921875 552.632812 596.367188 552.632812 C 602.8125 552.632812 609.074219 552.398438 615.519531 551.960938 L 615.519531 781.089844 C 615.519531 782.121094 615.621094 783.140625 615.820312 784.152344 C 616.023438 785.164062 616.320312 786.144531 616.714844 787.097656 C 617.109375 788.050781 617.59375 788.953125 618.164062 789.808594 C 618.738281 790.667969 619.386719 791.460938 620.113281 792.1875 C 620.84375 792.917969 621.636719 793.566406 622.492188 794.140625 C 623.347656 794.714844 624.253906 795.195312 625.203125 795.589844 C 626.15625 795.984375 627.136719 796.285156 628.148438 796.484375 C 629.15625 796.683594 630.175781 796.785156 631.207031 796.785156 L 832.609375 796.785156 C 833.234375 796.792969 833.847656 796.894531 834.449219 797.082031 C 835.046875 797.269531 835.605469 797.535156 836.125 797.886719 C 836.644531 798.238281 837.105469 798.65625 837.5 799.140625 C 837.898438 799.625 838.21875 800.160156 838.464844 800.738281 C 838.707031 801.316406 838.859375 801.917969 838.929688 802.539062 C 838.996094 803.164062 838.972656 803.785156 838.859375 804.402344 C 838.746094 805.019531 838.546875 805.605469 838.261719 806.167969 C 837.976562 806.726562 837.617188 807.230469 837.183594 807.6875 Z M 837.183594 807.757812 " fill-opacity="1" fill-rule="nonzero"/></g></svg>