<svg xmlns="http://www.w3.org/2000/svg" xmlns:xlink="http://www.w3.org/1999/xlink" width="1587" zoomAndPan="magnify" viewBox="0 0 1190.25 842.249997" height="1122" preserveAspectRatio="xMidYMid meet" version="1.0"><defs><clipPath id="46b88b5467"><path d="M 856 7.789062 L 1027.039062 7.789062 L 1027.039062 179 L 856 179 Z M 856 7.789062 " clip-rule="nonzero"/></clipPath><clipPath id="ace7291faa"><path d="M 856 178 L 1027.039062 178 L 1027.039062 236 L 856 236 Z M 856 178 " clip-rule="nonzero"/></clipPath><clipPath id="15bfaf0db9"><path d="M 856 178 L 1027.039062 178 L 1027.039062 236 L 856 236 Z M 856 178 " clip-rule="nonzero"/></clipPath><clipPath id="a1dce98bf8"><path d="M 799 776 L 999 776 L 999 833.550781 L 799 833.550781 Z M 799 776 " clip-rule="nonzero"/></clipPath><clipPath id="08121edc37"><path d="M 201.273438 748 L 373 748 L 373 833.550781 L 201.273438 833.550781 Z M 201.273438 748 " clip-rule="nonzero"/></clipPath><clipPath id="e1ddc2b640"><path d="M 201.273438 235 L 487 235 L 487 435 L 201.273438 435 Z M 201.273438 235 " clip-rule="nonzero"/></clipPath><clipPath id="37fe53ba4e"><path d="M 343 776 L 401 776 L 401 833.550781 L 343 833.550781 Z M 343 776 " clip-rule="nonzero"/></clipPath><clipPath id="a7cd09e27f"><path d="M 343 779 L 399 779 L 399 833.550781 L 343 833.550781 Z M 343 779 " clip-rule="nonzero"/></clipPath><clipPath id="c919764b31"><path d="M 201.273438 548 L 372 548 L 372 607 L 201.273438 607 Z M 201.273438 548 " clip-rule="nonzero"/></clipPath><clipPath id="97ba4a9f80"><path d="M 229 7.789062 L 301 7.789062 L 301 65 L 229 65 Z M 229 7.789062 " clip-rule="nonzero"/></clipPath><clipPath id="ce5fac0835"><path d="M 286 7.789062 L 358 7.789062 L 358 65 L 286 65 Z M 286 7.789062 " clip-rule="nonzero"/></clipPath><clipPath id="bc2433bf1e"><path d="M 343 7.789062 L 415 7.789062 L 415 65 L 343 65 Z M 343 7.789062 " clip-rule="nonzero"/></clipPath><clipPath id="e75025c096"><path d="M 201.273438 121 L 273 121 L 273 179 L 201.273438 179 Z M 201.273438 121 " clip-rule="nonzero"/></clipPath><clipPath id="cd564363d1"><path d="M 343 7.789062 L 401 7.789062 L 401 65 L 343 65 Z M 343 7.789062 " clip-rule="nonzero"/></clipPath><clipPath id="ae1ad01c8a"><path d="M 286 7.789062 L 344 7.789062 L 344 65 L 286 65 Z M 286 7.789062 " clip-rule="nonzero"/></clipPath><clipPath id="9ac2b6962c"><path d="M 229 7.789062 L 287 7.789062 L 287 65 L 229 65 Z M 229 7.789062 " clip-rule="nonzero"/></clipPath><clipPath id="e9a0eb4ace"><path d="M 201.273438 121 L 259 121 L 259 179 L 201.273438 179 Z M 201.273438 121 " clip-rule="nonzero"/></clipPath></defs><g clip-path="url(#46b88b5467)"><path fill="#f7b60b" d="M 1027.039062 93.210938 C 1027.039062 46.050781 988.773438 7.789062 941.613281 7.789062 C 894.453125 7.789062 856.191406 46.050781 856.191406 93.210938 C 856.191406 118.460938 867.257812 141.09375 884.664062 156.777344 L 884.664062 178.636719 L 998.5625 178.636719 L 998.5625 156.777344 C 1015.972656 141.09375 1027.039062 118.460938 1027.039062 93.210938 " fill-opacity="1" fill-rule="nonzero"/></g><path fill="#e48e1e" d="M 998.5625 150.160156 C 951.402344 150.160156 913.140625 111.898438 913.140625 64.738281 C 913.140625 42.992188 921.316406 23.191406 934.71875 8.121094 C 890.78125 11.679688 856.191406 48.386719 856.191406 93.210938 C 856.191406 118.460938 867.257812 141.09375 884.664062 156.777344 L 884.664062 178.636719 L 998.5625 178.636719 L 998.5625 156.777344 C 1000.953125 154.554688 1003.234375 152.273438 1005.402344 149.828125 C 1003.179688 149.992188 1000.898438 150.160156 998.5625 150.160156 " fill-opacity="1" fill-rule="nonzero"/><path fill="#f3e305" d="M 927.375 127.582031 L 927.375 178.636719 C 927.375 186.476562 933.773438 192.871094 941.613281 192.871094 C 949.457031 192.871094 955.851562 186.476562 955.851562 178.636719 L 955.851562 127.582031 L 980.15625 103.277344 C 985.714844 97.714844 985.714844 88.707031 980.15625 83.144531 C 974.59375 77.582031 965.585938 77.582031 960.023438 83.144531 L 941.613281 101.554688 L 923.207031 83.144531 C 917.644531 77.582031 908.632812 77.582031 903.074219 83.144531 C 897.511719 88.707031 897.511719 97.714844 903.074219 103.277344 L 927.375 127.582031 " fill-opacity="1" fill-rule="nonzero"/><g clip-path="url(#ace7291faa)"><path fill="#d2dbda" d="M 998.5625 235.585938 L 884.664062 235.585938 C 868.925781 235.585938 856.191406 222.847656 856.191406 207.109375 C 856.191406 191.371094 868.925781 178.636719 884.664062 178.636719 L 998.5625 178.636719 C 1014.300781 178.636719 1027.039062 191.371094 1027.039062 207.109375 C 1027.039062 222.847656 1014.300781 235.585938 998.5625 235.585938 " fill-opacity="1" fill-rule="nonzero"/></g><path fill="#8f9697" d="M 998.5625 235.585938 L 884.664062 235.585938 C 884.664062 267.0625 910.136719 292.535156 941.613281 292.535156 C 973.09375 292.535156 998.5625 267.0625 998.5625 235.585938 " fill-opacity="1" fill-rule="nonzero"/><g clip-path="url(#15bfaf0db9)"><path fill="#8f9697" d="M 884.664062 178.636719 C 868.925781 178.636719 856.191406 191.371094 856.191406 207.109375 C 856.191406 222.847656 868.925781 235.585938 884.664062 235.585938 L 998.5625 235.585938 C 1014.300781 235.585938 1027.039062 222.847656 1027.039062 207.109375 L 913.140625 207.109375 C 897.402344 207.109375 884.664062 194.375 884.664062 178.636719 " fill-opacity="1" fill-rule="nonzero"/></g><path fill="#5e6574" d="M 970.089844 249.820312 L 996.5625 249.820312 C 997.730469 245.261719 998.5625 240.535156 998.5625 235.585938 L 884.664062 235.585938 C 884.664062 262.167969 902.960938 284.300781 927.597656 290.585938 C 928.601562 267.894531 947.175781 249.820312 970.089844 249.820312 " fill-opacity="1" fill-rule="nonzero"/><path fill="#f7b60b" d="M 914.472656 79.25 C 910.359375 78.863281 906.1875 80.03125 903.074219 83.144531 C 897.511719 88.707031 897.511719 97.714844 903.074219 103.277344 L 927.375 127.582031 L 927.375 178.636719 L 955.851562 178.636719 L 955.851562 138.648438 C 934.328125 126.191406 918.8125 104.613281 914.472656 79.25 " fill-opacity="1" fill-rule="nonzero"/><path fill="#6dbbea" d="M 785.003906 648.464844 L 785.003906 776.601562 L 1012.800781 776.601562 L 1012.800781 648.464844 L 785.003906 648.464844 " fill-opacity="1" fill-rule="nonzero"/><path fill="#90d9f5" d="M 870.425781 648.464844 L 1012.800781 776.601562 L 1012.800781 648.464844 Z M 870.425781 648.464844 " fill-opacity="1" fill-rule="nonzero"/><g clip-path="url(#a1dce98bf8)"><path fill="#8f9697" d="M 984.324219 805.078125 L 955.851562 805.078125 L 955.851562 776.601562 L 927.375 776.601562 L 927.375 805.078125 L 870.425781 805.078125 L 870.425781 776.601562 L 841.953125 776.601562 L 841.953125 805.078125 L 813.476562 805.078125 C 805.636719 805.078125 799.242188 811.472656 799.242188 819.316406 C 799.242188 827.15625 805.636719 833.550781 813.476562 833.550781 L 984.324219 833.550781 C 992.167969 833.550781 998.5625 827.15625 998.5625 819.316406 C 998.5625 811.472656 992.167969 805.078125 984.324219 805.078125 " fill-opacity="1" fill-rule="nonzero"/></g><path fill="#6dbbea" d="M 243.984375 762.367188 L 243.984375 705.417969 C 243.984375 697.574219 237.589844 691.179688 229.746094 691.179688 C 221.90625 691.179688 215.511719 697.574219 215.511719 705.417969 L 215.511719 762.367188 C 215.511719 770.207031 221.90625 776.601562 229.746094 776.601562 C 237.589844 776.601562 243.984375 770.207031 243.984375 762.367188 " fill-opacity="1" fill-rule="nonzero"/><path fill="#6dbbea" d="M 343.648438 691.179688 C 335.804688 691.179688 329.410156 697.574219 329.410156 705.417969 L 329.410156 762.367188 C 329.410156 770.207031 335.804688 776.601562 343.648438 776.601562 C 351.488281 776.601562 357.882812 770.207031 357.882812 762.367188 L 357.882812 705.417969 C 357.882812 697.574219 351.488281 691.179688 343.648438 691.179688 " fill-opacity="1" fill-rule="nonzero"/><g clip-path="url(#08121edc37)"><path fill="#d2dbda" d="M 343.648438 833.550781 L 229.746094 833.550781 C 214.007812 833.550781 201.273438 820.816406 201.273438 805.078125 L 201.273438 748.128906 L 372.121094 748.128906 L 372.121094 805.078125 C 372.121094 820.816406 359.386719 833.550781 343.648438 833.550781 " fill-opacity="1" fill-rule="nonzero"/><path fill="#8f9697" d="M 229.746094 762.367188 L 229.746094 748.128906 L 201.273438 748.128906 L 201.273438 805.078125 C 201.273438 820.816406 214.007812 833.550781 229.746094 833.550781 L 343.648438 833.550781 C 359.386719 833.550781 372.121094 820.816406 372.121094 805.078125 L 372.121094 790.839844 L 258.222656 790.839844 C 242.484375 790.839844 229.746094 778.105469 229.746094 762.367188 " fill-opacity="1" fill-rule="nonzero"/></g><path fill="#6dbbea" d="M 300.933594 776.601562 L 243.984375 776.601562 C 236.144531 776.601562 229.746094 783 229.746094 790.839844 C 229.746094 798.679688 236.144531 805.078125 243.984375 805.078125 L 300.933594 805.078125 C 308.777344 805.078125 315.171875 798.679688 315.171875 790.839844 C 315.171875 783 308.777344 776.601562 300.933594 776.601562 " fill-opacity="1" fill-rule="nonzero"/><path fill="#578fd3" d="M 235.699219 779.605469 C 232.195312 782.164062 229.746094 786.113281 229.746094 790.839844 C 229.746094 798.679688 236.144531 805.078125 243.984375 805.078125 L 300.933594 805.078125 C 308.777344 805.078125 315.171875 798.679688 315.171875 790.839844 L 258.222656 790.839844 C 248.992188 790.839844 240.871094 786.390625 235.699219 779.605469 " fill-opacity="1" fill-rule="nonzero"/><g clip-path="url(#e1ddc2b640)"><path fill="#f3e305" d="M 215.511719 349.484375 L 286.699219 349.484375 L 286.699219 420.667969 C 286.699219 428.511719 293.09375 434.90625 300.933594 434.90625 L 471.78125 434.90625 C 479.625 434.90625 486.019531 428.511719 486.019531 420.667969 C 486.019531 412.828125 479.625 406.433594 471.78125 406.433594 L 315.171875 406.433594 L 315.171875 335.246094 C 315.171875 327.402344 308.777344 321.007812 300.933594 321.007812 L 229.746094 321.007812 L 229.746094 264.058594 L 300.933594 264.058594 C 308.777344 264.058594 315.171875 257.664062 315.171875 249.820312 C 315.171875 241.980469 308.777344 235.585938 300.933594 235.585938 L 215.511719 235.585938 C 207.667969 235.585938 201.273438 241.980469 201.273438 249.820312 L 201.273438 335.246094 C 201.273438 343.085938 207.667969 349.484375 215.511719 349.484375 " fill-opacity="1" fill-rule="nonzero"/></g><path fill="#f3e305" d="M 770.765625 463.382812 L 941.613281 463.382812 C 949.457031 463.382812 955.851562 456.984375 955.851562 449.144531 L 955.851562 321.007812 C 955.851562 313.167969 949.457031 306.769531 941.613281 306.769531 C 933.773438 306.769531 927.375 313.167969 927.375 321.007812 L 927.375 434.90625 L 770.765625 434.90625 C 762.925781 434.90625 756.527344 441.300781 756.527344 449.144531 C 756.527344 456.984375 762.925781 463.382812 770.765625 463.382812 " fill-opacity="1" fill-rule="nonzero"/><path fill="#f3e305" d="M 500.257812 577.28125 C 492.414062 577.28125 486.019531 583.675781 486.019531 591.515625 L 486.019531 790.839844 L 386.359375 790.839844 C 378.515625 790.839844 372.121094 797.234375 372.121094 805.078125 C 372.121094 812.917969 378.515625 819.316406 386.359375 819.316406 L 500.257812 819.316406 C 508.097656 819.316406 514.496094 812.917969 514.496094 805.078125 L 514.496094 591.515625 C 514.496094 583.675781 508.097656 577.28125 500.257812 577.28125 " fill-opacity="1" fill-rule="nonzero"/><path fill="#f3e305" d="M 770.765625 705.417969 L 671.105469 705.417969 L 671.105469 591.515625 C 671.105469 583.675781 664.710938 577.28125 656.867188 577.28125 C 649.027344 577.28125 642.628906 583.675781 642.628906 591.515625 L 642.628906 719.652344 C 642.628906 727.496094 649.027344 733.890625 656.867188 733.890625 L 770.765625 733.890625 C 778.609375 733.890625 785.003906 727.496094 785.003906 719.652344 C 785.003906 711.8125 778.609375 705.417969 770.765625 705.417969 " fill-opacity="1" fill-rule="nonzero"/><path fill="#f3e305" d="M 970.089844 306.769531 C 970.089844 322.511719 957.351562 335.246094 941.613281 335.246094 C 925.875 335.246094 913.140625 322.511719 913.140625 306.769531 C 913.140625 291.03125 925.875 278.296875 941.613281 278.296875 C 957.351562 278.296875 970.089844 291.03125 970.089844 306.769531 " fill-opacity="1" fill-rule="nonzero"/><path fill="#f7b60b" d="M 955.851562 321.007812 C 940.113281 321.007812 927.375 308.273438 927.375 292.535156 C 927.375 288.363281 928.320312 284.414062 929.933594 280.855469 C 920.035156 285.304688 913.140625 295.203125 913.140625 306.769531 C 913.140625 322.511719 925.875 335.246094 941.613281 335.246094 C 953.183594 335.246094 963.082031 328.347656 967.53125 318.449219 C 963.972656 320.0625 960.023438 321.007812 955.851562 321.007812 " fill-opacity="1" fill-rule="nonzero"/><path fill="#f3e305" d="M 813.476562 719.652344 C 813.476562 735.390625 800.742188 748.128906 785.003906 748.128906 C 769.265625 748.128906 756.527344 735.390625 756.527344 719.652344 C 756.527344 703.914062 769.265625 691.179688 785.003906 691.179688 C 800.742188 691.179688 813.476562 703.914062 813.476562 719.652344 " fill-opacity="1" fill-rule="nonzero"/><path fill="#f7b60b" d="M 799.242188 733.890625 C 783.503906 733.890625 770.765625 721.15625 770.765625 705.417969 C 770.765625 701.246094 771.710938 697.296875 773.324219 693.738281 C 763.425781 698.1875 756.527344 708.085938 756.527344 719.652344 C 756.527344 735.390625 769.265625 748.128906 785.003906 748.128906 C 796.570312 748.128906 806.472656 741.230469 810.921875 731.332031 C 807.359375 732.945312 803.410156 733.890625 799.242188 733.890625 " fill-opacity="1" fill-rule="nonzero"/><g clip-path="url(#37fe53ba4e)"><path fill="#f3e305" d="M 400.597656 805.078125 C 400.597656 820.816406 387.859375 833.550781 372.121094 833.550781 C 356.382812 833.550781 343.648438 820.816406 343.648438 805.078125 C 343.648438 789.339844 356.382812 776.601562 372.121094 776.601562 C 387.859375 776.601562 400.597656 789.339844 400.597656 805.078125 " fill-opacity="1" fill-rule="nonzero"/></g><g clip-path="url(#a7cd09e27f)"><path fill="#f7b60b" d="M 386.359375 819.316406 C 370.621094 819.316406 357.882812 806.578125 357.882812 790.839844 C 357.882812 786.667969 358.828125 782.71875 360.441406 779.160156 C 350.542969 783.609375 343.648438 793.507812 343.648438 805.078125 C 343.648438 820.816406 356.382812 833.550781 372.121094 833.550781 C 383.6875 833.550781 393.589844 826.65625 398.039062 816.757812 C 394.476562 818.371094 390.53125 819.316406 386.359375 819.316406 " fill-opacity="1" fill-rule="nonzero"/></g><path fill="#f3e305" d="M 326.960938 622.4375 C 305.4375 600.917969 267.957031 600.917969 246.433594 622.4375 C 240.871094 628 240.871094 637.011719 246.433594 642.570312 C 251.992188 648.132812 261.003906 648.132812 266.566406 642.570312 C 277.355469 631.839844 296.039062 631.839844 306.828125 642.570312 C 309.609375 645.351562 313.226562 646.742188 316.894531 646.742188 C 320.566406 646.742188 324.179688 645.351562 326.960938 642.570312 C 332.523438 637.011719 332.523438 628 326.960938 622.4375 " fill-opacity="1" fill-rule="nonzero"/><g clip-path="url(#c919764b31)"><path fill="#f3e305" d="M 286.699219 548.804688 C 256.277344 548.804688 227.691406 560.652344 206.167969 582.175781 C 200.605469 587.734375 200.605469 596.746094 206.167969 602.308594 C 211.730469 607.867188 220.738281 607.867188 226.300781 602.308594 C 242.429688 586.179688 263.894531 577.28125 286.699219 577.28125 C 309.5 577.28125 330.964844 586.179688 347.09375 602.308594 C 349.875 605.085938 353.546875 606.476562 357.160156 606.476562 C 360.832031 606.476562 364.445312 605.085938 367.226562 602.308594 C 372.789062 596.746094 372.789062 587.734375 367.226562 582.175781 C 345.703125 560.652344 317.117188 548.804688 286.699219 548.804688 " fill-opacity="1" fill-rule="nonzero"/></g><path fill="#f3e305" d="M 300.933594 676.941406 C 300.933594 669.101562 294.539062 662.703125 286.699219 662.703125 C 278.855469 662.703125 272.460938 669.101562 272.460938 676.941406 C 272.460938 684.78125 278.855469 691.179688 286.699219 691.179688 C 294.539062 691.179688 300.933594 684.78125 300.933594 676.941406 " fill-opacity="1" fill-rule="nonzero"/><path fill="#d2dbda" d="M 841.953125 363.71875 L 841.953125 321.007812 L 756.527344 272.957031 L 756.527344 192.871094 L 685.34375 192.871094 L 685.34375 232.914062 L 614.15625 192.871094 L 386.359375 321.007812 L 386.359375 363.71875 L 457.546875 363.71875 L 457.546875 534.566406 L 414.832031 534.566406 L 414.832031 591.515625 L 813.476562 591.515625 L 813.476562 534.566406 L 770.765625 534.566406 L 770.765625 363.71875 L 841.953125 363.71875 " fill-opacity="1" fill-rule="nonzero"/><path fill="#8f9697" d="M 770.765625 463.382812 L 713.816406 463.382812 C 619.4375 463.382812 542.96875 386.910156 542.96875 292.535156 L 542.96875 232.914062 L 386.359375 321.007812 L 386.359375 363.71875 L 457.546875 363.71875 L 457.546875 534.566406 L 414.832031 534.566406 L 414.832031 591.515625 L 813.476562 591.515625 L 813.476562 534.566406 L 770.765625 534.566406 L 770.765625 463.382812 " fill-opacity="1" fill-rule="nonzero"/><path fill="#f3e305" d="M 685.34375 420.667969 L 642.628906 392.195312 L 656.867188 306.769531 L 542.96875 420.667969 L 585.679688 449.144531 L 571.445312 534.566406 L 685.34375 420.667969 " fill-opacity="1" fill-rule="nonzero"/><path fill="#f7b60b" d="M 642.628906 434.90625 L 599.917969 420.667969 L 656.867188 306.769531 L 542.96875 420.667969 L 585.679688 449.144531 L 571.445312 534.566406 L 642.628906 434.90625 " fill-opacity="1" fill-rule="nonzero"/><path fill="#f7b60b" d="M 585.679688 449.144531 L 571.445312 534.566406 L 653.699219 452.3125 C 621.109375 440.023438 593.246094 418.167969 573.613281 390.027344 L 542.96875 420.667969 L 585.679688 449.144531 " fill-opacity="1" fill-rule="nonzero"/><path fill="#e48e1e" d="M 585.679688 449.144531 L 571.445312 534.566406 L 635.84375 444.417969 C 623.5 438.078125 612.097656 430.289062 601.753906 421.28125 L 599.917969 420.667969 L 600.308594 419.945312 C 590.296875 411.046875 581.289062 401.039062 573.613281 390.027344 L 542.96875 420.667969 L 585.679688 449.144531 " fill-opacity="1" fill-rule="nonzero"/><path fill="#d2dbda" d="M 343.648438 264.058594 L 286.699219 264.058594 L 286.699219 150.160156 L 343.648438 150.160156 L 343.648438 264.058594 " fill-opacity="1" fill-rule="nonzero"/><path fill="#8f9697" d="M 315.171875 235.585938 C 315.171875 219.84375 327.90625 207.109375 343.648438 207.109375 L 343.648438 150.160156 L 286.699219 150.160156 L 286.699219 264.058594 L 315.171875 264.058594 L 315.171875 235.585938 " fill-opacity="1" fill-rule="nonzero"/><g clip-path="url(#97ba4a9f80)"><path fill="#90d9f5" d="M 286.699219 64.738281 L 229.746094 64.738281 L 243.984375 7.789062 L 300.933594 7.789062 L 286.699219 64.738281 " fill-opacity="1" fill-rule="nonzero"/></g><g clip-path="url(#ce5fac0835)"><path fill="#90d9f5" d="M 343.648438 64.738281 L 286.699219 64.738281 L 300.933594 7.789062 L 357.882812 7.789062 L 343.648438 64.738281 " fill-opacity="1" fill-rule="nonzero"/></g><g clip-path="url(#bc2433bf1e)"><path fill="#90d9f5" d="M 400.597656 64.738281 L 343.648438 64.738281 L 357.882812 7.789062 L 414.832031 7.789062 L 400.597656 64.738281 " fill-opacity="1" fill-rule="nonzero"/></g><path fill="#90d9f5" d="M 272.460938 121.6875 L 215.511719 121.6875 L 229.746094 64.738281 L 286.699219 64.738281 L 272.460938 121.6875 " fill-opacity="1" fill-rule="nonzero"/><path fill="#90d9f5" d="M 329.410156 121.6875 L 272.460938 121.6875 L 286.699219 64.738281 L 343.648438 64.738281 L 329.410156 121.6875 " fill-opacity="1" fill-rule="nonzero"/><path fill="#90d9f5" d="M 386.359375 121.6875 L 329.410156 121.6875 L 343.648438 64.738281 L 400.597656 64.738281 L 386.359375 121.6875 " fill-opacity="1" fill-rule="nonzero"/><g clip-path="url(#e75025c096)"><path fill="#90d9f5" d="M 258.222656 178.636719 L 201.273438 178.636719 L 215.511719 121.6875 L 272.460938 121.6875 L 258.222656 178.636719 " fill-opacity="1" fill-rule="nonzero"/></g><path fill="#90d9f5" d="M 315.171875 178.636719 L 258.222656 178.636719 L 272.460938 121.6875 L 329.410156 121.6875 L 315.171875 178.636719 " fill-opacity="1" fill-rule="nonzero"/><path fill="#90d9f5" d="M 372.121094 178.636719 L 315.171875 178.636719 L 329.410156 121.6875 L 386.359375 121.6875 L 372.121094 178.636719 " fill-opacity="1" fill-rule="nonzero"/><g clip-path="url(#cd564363d1)"><path fill="#6dbbea" d="M 400.597656 64.738281 L 343.648438 64.738281 L 357.882812 7.789062 Z M 400.597656 64.738281 " fill-opacity="1" fill-rule="nonzero"/></g><g clip-path="url(#ae1ad01c8a)"><path fill="#6dbbea" d="M 343.648438 64.738281 L 286.699219 64.738281 L 300.933594 7.789062 Z M 343.648438 64.738281 " fill-opacity="1" fill-rule="nonzero"/></g><g clip-path="url(#9ac2b6962c)"><path fill="#6dbbea" d="M 286.699219 64.738281 L 229.746094 64.738281 L 243.984375 7.789062 Z M 286.699219 64.738281 " fill-opacity="1" fill-rule="nonzero"/></g><path fill="#6dbbea" d="M 386.359375 121.6875 L 329.410156 121.6875 L 343.648438 64.738281 Z M 386.359375 121.6875 " fill-opacity="1" fill-rule="nonzero"/><path fill="#6dbbea" d="M 329.410156 121.6875 L 272.460938 121.6875 L 286.699219 64.738281 Z M 329.410156 121.6875 " fill-opacity="1" fill-rule="nonzero"/><path fill="#6dbbea" d="M 272.460938 121.6875 L 215.511719 121.6875 L 229.746094 64.738281 Z M 272.460938 121.6875 " fill-opacity="1" fill-rule="nonzero"/><path fill="#6dbbea" d="M 372.121094 178.636719 L 315.171875 178.636719 L 329.410156 121.6875 Z M 372.121094 178.636719 " fill-opacity="1" fill-rule="nonzero"/><path fill="#6dbbea" d="M 315.171875 178.636719 L 258.222656 178.636719 L 272.460938 121.6875 Z M 315.171875 178.636719 " fill-opacity="1" fill-rule="nonzero"/><g clip-path="url(#e9a0eb4ace)"><path fill="#6dbbea" d="M 258.222656 178.636719 L 201.273438 178.636719 L 215.511719 121.6875 Z M 258.222656 178.636719 " fill-opacity="1" fill-rule="nonzero"/></g></svg>