<svg xmlns="http://www.w3.org/2000/svg" xmlns:xlink="http://www.w3.org/1999/xlink" width="1587" zoomAndPan="magnify" viewBox="0 0 1190.25 842.249997" height="1122" preserveAspectRatio="xMidYMid meet" version="1.0"><defs><clipPath id="23ea1c7113"><path d="M 178 825 L 783 825 L 783 841.5 L 178 841.5 Z M 178 825 " clip-rule="nonzero"/></clipPath></defs><path fill="#000000" d="M 372.835938 23.238281 C 370.097656 44.261719 357.046875 64.671875 346.375 85.636719 C 335.972656 106.054688 326.574219 126.964844 316.132812 146.144531 C 315.304688 134.859375 322.449219 123.792969 327.46875 114.003906 C 342.148438 85.394531 359.351562 54.644531 372.835938 23.238281 Z M 372.835938 23.238281 " fill-opacity="1" fill-rule="evenodd"/><path fill="#000000" d="M 386.066406 30.800781 C 389.441406 30.269531 389.941406 32.589844 387.957031 32.695312 C 369.804688 82.609375 341 121.859375 321.800781 170.726562 C 315.867188 166.574219 321.941406 157.992188 323.691406 153.710938 C 330.507812 137.003906 341.105469 121.660156 350.152344 104.550781 C 362.953125 80.332031 373.40625 54.378906 386.066406 30.800781 Z M 386.066406 30.800781 " fill-opacity="1" fill-rule="evenodd"/><path fill="#000000" d="M 240.523438 34.585938 C 244.164062 39.238281 248.683594 45.0625 242.414062 49.714844 C 237.082031 49.367188 240.054688 40.722656 232.960938 42.148438 C 225.246094 48.773438 238.703125 50.140625 236.738281 57.269531 C 232.75 61.445312 231.15625 54.84375 225.402344 55.382812 C 224.097656 42.105469 226.011719 32.039062 240.523438 34.585938 Z M 240.523438 34.585938 " fill-opacity="1" fill-rule="evenodd"/><path fill="#000000" d="M 423.871094 42.152344 C 427.085938 41.453125 427.433594 43.625 427.648438 45.933594 C 405.246094 92.847656 380.851562 137.785156 361.492188 187.746094 C 355.171875 178.722656 365.695312 163.101562 370.945312 151.820312 C 376.296875 140.296875 382.371094 128.949219 387.957031 117.78125 C 400.746094 92.21875 412.050781 65.859375 423.871094 42.152344 Z M 423.871094 42.152344 " fill-opacity="1" fill-rule="evenodd"/><path fill="#000000" d="M 748.972656 61.054688 C 742.90625 62.71875 745.058594 56.152344 741.410156 55.386719 C 739.875 55.746094 739.527344 57.285156 737.628906 57.273438 C 738.398438 60.921875 744.957031 58.769531 743.300781 64.839844 C 740.863281 67.445312 735.089844 66.710938 730.070312 66.734375 C 721.425781 51.5 758.667969 35.324219 748.972656 61.054688 Z M 748.972656 61.054688 " fill-opacity="1" fill-rule="evenodd"/><path fill="#000000" d="M 391.738281 64.835938 C 395.113281 64.304688 395.617188 66.621094 393.625 66.730469 C 380.09375 101.730469 360.371094 130.53125 344.476562 163.160156 C 344.246094 146.039062 357.25 131.320312 365.269531 115.890625 C 374.273438 98.585938 383.078125 82.476562 391.738281 64.835938 Z M 391.738281 64.835938 " fill-opacity="1" fill-rule="evenodd"/><path fill="#000000" d="M 333.144531 68.621094 C 338.855469 73.851562 328.640625 79.136719 329.363281 85.640625 C 323.644531 80.410156 333.867188 75.128906 333.144531 68.621094 Z M 333.144531 68.621094 " fill-opacity="1" fill-rule="evenodd"/><path fill="#000000" d="M 429.535156 72.402344 C 431.734375 72.097656 432.898438 72.820312 433.316406 74.292969 C 423.507812 98.363281 410.609375 121.285156 399.292969 146.144531 C 396.070312 153.226562 394.835938 164.230469 386.0625 166.945312 C 396.859375 131.734375 414.527344 103.402344 429.535156 72.402344 Z M 429.535156 72.402344 " fill-opacity="1" fill-rule="evenodd"/><path fill="#000000" d="M 319.914062 98.875 C 320.890625 110.59375 307.472656 124.234375 302.902344 136.695312 C 300.472656 123.527344 314.640625 110.636719 319.914062 98.875 Z M 319.914062 98.875 " fill-opacity="1" fill-rule="evenodd"/><path fill="#000000" d="M 423.871094 117.785156 C 426.066406 117.472656 427.230469 118.199219 427.648438 119.671875 C 421.214844 133.40625 415.476562 147.835938 406.855469 159.378906 C 406.601562 165.429688 408.71875 173.851562 401.1875 172.617188 C 400.023438 153.007812 416.277344 134.894531 423.871094 117.785156 Z M 423.871094 117.785156 " fill-opacity="1" fill-rule="evenodd"/><path fill="#000000" d="M 440.878906 129.128906 C 435.707031 147.902344 427.710938 163.859375 418.199219 178.292969 C 418.273438 184.042969 419.296875 190.738281 412.527344 189.636719 C 410.050781 179.0625 418.933594 167.863281 423.871094 157.496094 C 428.566406 147.625 431.351562 133.851562 440.878906 129.128906 Z M 440.878906 129.128906 " fill-opacity="1" fill-rule="evenodd"/><path fill="#000000" d="M 480.570312 140.476562 C 482.765625 140.171875 483.933594 140.894531 484.347656 142.363281 C 478.5625 154.855469 477.082031 171.652344 463.554688 176.402344 C 466.046875 161.238281 474.84375 152.394531 480.570312 140.476562 Z M 480.570312 140.476562 " fill-opacity="1" fill-rule="evenodd"/><path fill="#000000" d="M 448.441406 155.597656 C 450.640625 155.292969 451.804688 156.015625 452.21875 157.492188 C 447.183594 170.097656 444.328125 184.894531 431.425781 189.632812 C 434.425781 175.617188 444.109375 168.289062 448.441406 155.597656 Z M 448.441406 155.597656 " fill-opacity="1" fill-rule="evenodd"/><path fill="#000000" d="M 716.84375 170.726562 C 727.246094 173.703125 728.082031 179.847656 726.292969 191.53125 C 718.804688 188.933594 716.804688 180.847656 716.84375 170.726562 Z M 716.84375 170.726562 " fill-opacity="1" fill-rule="evenodd"/><path fill="#000000" d="M 620.445312 643.449219 C 613.140625 648.644531 611.238281 656.328125 610.992188 664.242188 C 601.605469 662.898438 601.164062 661.191406 593.984375 660.46875 C 594.863281 653.785156 598.757812 650.117188 601.542969 645.339844 C 600.136719 641.074219 590.941406 644.597656 586.417969 643.449219 C 579.738281 648.109375 588.257812 667.96875 573.1875 664.246094 C 573.296875 654.273438 580.554688 651.453125 582.640625 643.449219 L 558.066406 643.449219 C 549.03125 650.75 555.355469 655.933594 550.507812 662.355469 C 540.464844 659.273438 549.433594 651.058594 550.507812 643.449219 C 539.445312 641.214844 544.019531 654.613281 539.164062 658.574219 C 529.6875 657.195312 539.78125 648.003906 539.164062 643.449219 C 518.925781 634.152344 513.703125 654.757812 510.808594 664.246094 C 501.066406 658.910156 513.339844 649.640625 514.589844 643.449219 C 499.957031 634.453125 503.925781 658.8125 497.578125 664.246094 C 485.390625 660.589844 498.335938 650.464844 499.472656 643.449219 C 480.265625 634.089844 490.625 665.867188 478.679688 666.140625 C 473.230469 657.828125 481.703125 649.695312 484.347656 643.449219 C 464.328125 634.117188 477.410156 663.714844 463.550781 664.246094 C 456.097656 655.277344 471.535156 647.261719 467.332031 641.558594 C 454.082031 639.640625 460.476562 657.390625 452.214844 660.46875 C 442.285156 657.40625 455.632812 648.460938 455.996094 643.449219 C 441.507812 635.183594 443.652344 658.433594 437.089844 664.246094 C 426.101562 658.609375 441.640625 649.320312 440.871094 641.558594 C 425.546875 639.472656 432.507812 659.660156 421.972656 662.359375 C 416.566406 655.105469 426.523438 650.148438 427.644531 643.453125 C 427.960938 639.347656 420.941406 642.59375 418.191406 641.558594 C 408.765625 647.035156 414.992188 660.679688 408.738281 666.144531 C 395.890625 663.109375 410.171875 648.960938 412.515625 643.453125 C 392.539062 634.769531 404.472656 666.117188 387.949219 664.25 C 388.015625 654.246094 394.769531 650.90625 397.398438 643.453125 C 380.976562 633.367188 387.84375 662.855469 374.71875 662.359375 C 373.394531 652.21875 380.304688 650.300781 382.277344 643.453125 C 366.808594 634.789062 372.292969 662.085938 361.480469 664.25 C 357.335938 657.238281 366.222656 649.53125 369.046875 643.453125 C 361.449219 639.070312 345.757812 642.796875 335.019531 641.558594 C 328.109375 645.359375 328.148438 656.117188 323.683594 662.363281 C 313.761719 656.847656 328.160156 649.710938 327.457031 641.558594 C 317.222656 642.035156 321.636719 657.167969 312.339844 658.578125 C 309.492188 648.4375 321.585938 646.519531 316.121094 639.671875 C 305.03125 641.816406 307.019531 657.042969 300.996094 664.25 C 291.773438 659.042969 304.277344 648.980469 304.777344 641.558594 C 293.910156 640.769531 295.734375 652.6875 291.546875 658.578125 C 283.003906 655.359375 291.988281 646.296875 293.433594 641.558594 C 291.199219 639.386719 286.75 639.425781 282.09375 639.671875 C 274.414062 606.910156 278.613281 571.820312 280.203125 537.566406 C 285.640625 420.699219 276.714844 317.671875 283.980469 216.117188 C 285.515625 215.753906 285.871094 214.21875 287.761719 214.222656 C 415.957031 216.21875 546.484375 217.398438 671.464844 223.675781 C 677.539062 232.101562 686.59375 237.542969 692.257812 246.371094 C 695.4375 276.152344 693.464844 305.941406 692.257812 337.132812 C 690.082031 393.078125 697.207031 449.5 692.257812 501.632812 C 690.039062 524.921875 691.167969 552.132812 690.363281 575.386719 C 689.941406 587.789062 692.835938 600.570312 690.363281 611.308594 C 686.988281 626.03125 671.222656 630.6875 663.902344 643.453125 C 645.960938 645.746094 634.972656 644.722656 620.445312 643.449219 Z M 291.558594 227.453125 C 286.625 356.402344 287.855469 492.59375 287.777344 632.101562 C 395.296875 633.390625 546.738281 636.082031 650.6875 635.882812 C 653.296875 504.222656 658.210938 367.160156 656.355469 231.234375 C 533.378906 224.273438 414.207031 224.597656 293.445312 221.78125 C 291.246094 222.097656 291.394531 224.773438 291.558594 227.453125 Z M 667.695312 240.6875 C 664.050781 372.488281 662.515625 493.101562 662.027344 626.429688 C 668.371094 628.308594 674.574219 613.8125 680.925781 609.414062 C 682.300781 491.300781 683.949219 367.035156 684.707031 246.367188 C 677.691406 243.929688 677.6875 234.476562 667.695312 235.019531 Z M 601.542969 658.570312 C 606.976562 655.1875 612.328125 651.714844 612.878906 643.449219 C 603.617188 643.003906 602.980469 651.1875 601.542969 658.570312 Z M 601.542969 658.570312 " fill-opacity="1" fill-rule="evenodd"/><path fill="#000000" d="M 363.382812 289.855469 C 354.363281 283.164062 344.847656 289.6875 336.921875 289.855469 C 340.03125 298.449219 350.882812 287.550781 355.820312 293.636719 C 342.855469 311.046875 316.277344 283.515625 325.578125 263.382812 C 331.769531 249.984375 351.972656 249.40625 365.269531 257.707031 C 369.515625 268.027344 370.683594 281.976562 363.382812 289.855469 Z M 363.382812 289.855469 " fill-opacity="1" fill-rule="evenodd"/><path fill="#000000" d="M 522.15625 252.035156 C 523.84375 252.871094 525.535156 253.699219 525.9375 255.816406 C 513.871094 281.738281 500.046875 306.0625 486.246094 331.453125 C 482.132812 339.011719 478.320312 348.679688 471.121094 354.140625 C 473.921875 334.519531 487.273438 320.886719 495.695312 304.976562 C 504.722656 287.925781 511.550781 269.878906 522.15625 252.035156 Z M 522.15625 252.035156 " fill-opacity="1" fill-rule="evenodd"/><path fill="#000000" d="M 490.023438 257.707031 L 495.695312 257.707031 C 486.789062 281.96875 475.144531 304.519531 463.5625 327.675781 C 460.226562 334.34375 456.710938 344.703125 448.445312 346.578125 C 458.085938 312.734375 479.585938 290.753906 490.023438 257.707031 Z M 490.023438 257.707031 " fill-opacity="1" fill-rule="evenodd"/><path fill="#000000" d="M 533.503906 259.601562 L 539.171875 259.601562 C 530.96875 286.0625 515.433594 305.1875 507.035156 331.457031 C 500.136719 320.3125 511.207031 306.367188 516.492188 295.523438 C 522.460938 283.289062 529.988281 271.785156 533.503906 259.601562 Z M 533.503906 259.601562 " fill-opacity="1" fill-rule="evenodd"/><path fill="#000000" d="M 550.511719 267.164062 L 556.179688 267.164062 C 553.8125 278.164062 547.808594 288.113281 542.949219 297.417969 C 538.402344 306.109375 534.402344 316.945312 525.9375 321.996094 C 527.207031 304.203125 544.671875 286.652344 550.511719 267.164062 Z M 550.511719 267.164062 " fill-opacity="1" fill-rule="evenodd"/><path fill="#000000" d="M 741.410156 284.183594 L 741.410156 325.777344 C 735.976562 328.957031 727.390625 331.074219 720.617188 327.671875 C 712.5 305.609375 716.644531 262.214844 741.410156 284.183594 Z M 731.960938 321.996094 C 734.171875 313.5625 737.65625 288.964844 728.179688 286.070312 C 726.429688 295.796875 718.371094 319.21875 731.960938 321.996094 Z M 731.960938 321.996094 " fill-opacity="1" fill-rule="evenodd"/><path fill="#000000" d="M 764.09375 278.507812 L 769.761719 278.507812 C 771.808594 290.957031 774.890625 318.253906 767.875 327.671875 C 759.488281 325.339844 760.949219 313.160156 754.640625 308.761719 C 749.058594 313.921875 756.335938 323.34375 752.753906 327.671875 C 744.394531 316.753906 746.597656 294.945312 750.863281 280.398438 C 758.535156 284.703125 755.878906 299.328125 762.203125 304.976562 C 768.1875 298.839844 760.296875 282.707031 764.09375 278.507812 Z M 764.09375 278.507812 " fill-opacity="1" fill-rule="evenodd"/><path fill="#000000" d="M 380.394531 354.128906 C 374.835938 360.546875 367.46875 365.148438 365.269531 374.933594 C 350.300781 369.21875 369.785156 346.273438 380.394531 354.128906 Z M 380.394531 354.128906 " fill-opacity="1" fill-rule="evenodd"/><path fill="#000000" d="M 590.203125 361.707031 C 598.5625 384.691406 590.554688 429.820312 595.871094 454.359375 C 588.136719 457.972656 585.828125 467.007812 578.859375 471.375 C 561.746094 472.878906 535.296875 470.390625 512.707031 471.375 C 493.371094 501.199219 478.082031 535.0625 459.777344 565.917969 C 452.757812 563.011719 462.234375 549.238281 465.449219 543.230469 C 476.628906 522.328125 493.039062 497.429688 503.253906 475.15625 C 494.476562 468.320312 480.277344 471.375 467.339844 471.375 C 444.054688 471.375 417.609375 471.867188 397.40625 467.59375 C 406 455.777344 424.847656 463.171875 438.988281 463.816406 C 464.808594 464.988281 493.730469 467.234375 510.808594 461.925781 C 518.332031 468.164062 531.273438 465.53125 542.945312 465.707031 C 553.484375 465.863281 567.765625 468.523438 573.1875 465.707031 C 592.933594 455.453125 576.644531 403.140625 584.527344 376.832031 C 580.332031 371.574219 574 368.453125 569.40625 363.597656 C 523.03125 368.867188 480.613281 363.597656 433.3125 363.597656 C 418.84375 363.597656 402.429688 366.535156 389.84375 361.707031 C 395.5 354.527344 406.8125 358.0625 414.414062 357.925781 C 440.738281 357.453125 478.046875 356.035156 503.253906 356.035156 C 524.835938 356.035156 547.84375 356.972656 565.625 361.707031 C 571.617188 355.855469 582.699219 358.90625 590.203125 361.707031 Z M 590.203125 361.707031 " fill-opacity="1" fill-rule="evenodd"/><path fill="#000000" d="M 384.179688 373.050781 C 387.03125 375.722656 390.148438 382.238281 386.066406 386.285156 C 380.722656 387.851562 381.171875 383.621094 376.613281 384.398438 C 375.855469 377.335938 378.121094 373.304688 384.179688 373.050781 Z M 384.179688 373.050781 " fill-opacity="1" fill-rule="evenodd"/><path fill="#000000" d="M 563.730469 374.933594 L 571.296875 374.933594 C 571.289062 378.082031 571.296875 381.238281 571.296875 384.386719 L 563.730469 384.386719 Z M 563.730469 374.933594 " fill-opacity="1" fill-rule="evenodd"/><path fill="#000000" d="M 363.382812 384.398438 C 365.582031 384.09375 366.746094 384.816406 367.164062 386.285156 L 367.164062 446.800781 C 372.285156 454.277344 380.101562 459.066406 386.0625 465.707031 C 346.859375 477.167969 359.882812 405.242188 363.382812 384.398438 Z M 363.382812 384.398438 " fill-opacity="1" fill-rule="evenodd"/><path fill="#000000" d="M 881.289062 390.082031 C 878.488281 395.476562 868.273438 393.453125 871.839844 405.210938 C 856.523438 405.054688 867.921875 384.601562 881.289062 390.082031 Z M 881.289062 390.082031 " fill-opacity="1" fill-rule="evenodd"/><path fill="#000000" d="M 510.8125 416.539062 C 510.785156 422.183594 505.902344 422.972656 505.144531 427.886719 C 485.511719 421.6875 447.363281 434.011719 438.992188 416.539062 C 448.488281 417.121094 461.335938 414.359375 465.453125 420.320312 C 480.359375 408.359375 496.90625 423.664062 510.8125 416.539062 Z M 490.019531 420.320312 C 487.273438 421.355469 480.253906 418.117188 480.570312 422.214844 C 483.316406 421.183594 490.34375 424.425781 490.019531 420.320312 Z M 490.019531 420.320312 " fill-opacity="1" fill-rule="evenodd"/><path fill="#000000" d="M 556.179688 439.234375 C 554.738281 445.359375 544.496094 442.675781 542.949219 448.6875 C 502.386719 446.664062 466.613281 444.707031 431.429688 444.90625 C 421.199219 444.964844 408.933594 450.621094 399.296875 443.019531 C 436.664062 425.875 511.6875 439.65625 556.179688 439.234375 Z M 444.660156 441.121094 C 455.730469 442.871094 462.253906 443.859375 471.121094 439.234375 C 458.386719 440.945312 451.859375 432.945312 444.660156 441.121094 Z M 505.144531 443.015625 C 513.855469 443.117188 523.625 442.171875 529.71875 444.902344 C 529.058594 435.546875 505.117188 441.371094 505.144531 443.015625 Z M 505.144531 443.015625 " fill-opacity="1" fill-rule="evenodd"/><path fill="#000000" d="M 378.5 443.015625 C 386.378906 442.0625 387.578125 447.804688 387.957031 454.359375 C 379.132812 456.378906 373.757812 448.703125 378.5 443.015625 Z M 378.5 443.015625 " fill-opacity="1" fill-rule="evenodd"/><path fill="#000000" d="M 565.628906 443.015625 C 569.296875 442.265625 568.390625 451.625 563.742188 448.6875 L 563.742188 444.902344 C 565.34375 445.253906 565.519531 444.167969 565.628906 443.015625 Z M 565.628906 443.015625 " fill-opacity="1" fill-rule="evenodd"/><path fill="#000000" d="M 520.265625 477.054688 C 523.640625 476.515625 524.144531 478.839844 522.152344 478.941406 C 509.621094 518.09375 484.148438 544.289062 471.117188 582.9375 C 462.988281 567.925781 476.484375 558.335938 484.347656 545.125 C 487.636719 539.59375 490.597656 531.796875 493.800781 526.214844 C 504.050781 508.34375 510.988281 492.082031 520.265625 477.054688 Z M 520.265625 477.054688 " fill-opacity="1" fill-rule="evenodd"/><path fill="#000000" d="M 535.386719 486.503906 C 537.585938 486.195312 538.75 486.921875 539.167969 488.394531 C 530.265625 517.230469 510.375 538.179688 495.695312 562.144531 C 491.164062 569.539062 490.554688 581.6875 480.570312 584.832031 C 494.414062 547.621094 521.867188 524.03125 535.386719 486.503906 Z M 535.386719 486.503906 " fill-opacity="1" fill-rule="evenodd"/><path fill="#000000" d="M 550.511719 488.378906 L 556.179688 488.378906 C 545.996094 522.3125 525.160156 545.597656 512.707031 577.253906 C 507.003906 573.023438 510.914062 564.644531 512.707031 560.238281 C 516.148438 551.75 528.023438 538.84375 533.5 528.097656 C 536.554688 522.089844 537.890625 515.40625 541.058594 509.183594 C 544.765625 501.890625 549.0625 498.210938 550.511719 488.378906 Z M 550.511719 488.378906 " fill-opacity="1" fill-rule="evenodd"/><path fill="#000000" d="M 571.304688 503.53125 C 565.703125 515.265625 560.085938 526.9375 554.292969 539.457031 C 549.101562 550.671875 545.046875 564.117188 535.390625 571.601562 C 532.382812 563.9375 539.144531 556.308594 542.953125 548.90625 C 547 541.042969 548.945312 533.773438 552.402344 526.21875 C 556.09375 518.152344 562.296875 505.320312 571.304688 503.53125 Z M 571.304688 503.53125 " fill-opacity="1" fill-rule="evenodd"/><path fill="#000000" d="M 586.417969 514.875 L 592.085938 514.875 C 589.324219 525.683594 584.417969 543.277344 575.074219 541.34375 C 577.777344 531.433594 584.472656 525.523438 586.417969 514.875 Z M 586.417969 514.875 " fill-opacity="1" fill-rule="evenodd"/><path fill="#000000" d="M 340.703125 643.433594 C 349.757812 646.613281 337.15625 658.03125 336.921875 664.226562 C 326.542969 659.722656 340.617188 649.78125 340.703125 643.433594 Z M 340.703125 643.433594 " fill-opacity="1" fill-rule="evenodd"/><path fill="#000000" d="M 352.039062 645.335938 C 359.027344 647.554688 355.785156 664.777344 346.375 662.351562 C 346.527344 654.945312 349.703125 650.5625 352.039062 645.335938 Z M 352.039062 645.335938 " fill-opacity="1" fill-rule="evenodd"/><path fill="#000000" d="M 524.039062 645.328125 C 529.605469 644.507812 527.824219 665.90625 518.371094 662.34375 C 515.714844 652.128906 523.472656 652.328125 524.039062 645.328125 Z M 524.039062 645.328125 " fill-opacity="1" fill-rule="evenodd"/><path fill="#000000" d="M 563.742188 645.335938 C 570.320312 646.570312 563.613281 664.691406 556.179688 664.242188 C 552.417969 658.136719 562.527344 652.464844 563.742188 645.335938 Z M 563.742188 645.335938 " fill-opacity="1" fill-rule="evenodd"/><path fill="#000000" d="M 624.222656 647.226562 C 631.953125 648.101562 626.90625 665.34375 618.554688 662.355469 C 617.324219 654.191406 621.816406 651.757812 624.222656 647.226562 Z M 624.222656 647.226562 " fill-opacity="1" fill-rule="evenodd"/><path fill="#000000" d="M 645.015625 649.121094 C 645.386719 654.535156 645.246094 659.4375 639.339844 658.574219 C 636.515625 655.773438 639.164062 648.796875 645.015625 649.121094 Z M 645.015625 649.121094 " fill-opacity="1" fill-rule="evenodd"/><path fill="#000000" d="M 817.019531 651.007812 C 817.308594 656.972656 809.355469 654.6875 807.566406 658.574219 C 805.773438 670.800781 804.542969 682.933594 809.453125 692.613281 C 811.6875 694.789062 816.136719 694.757812 820.796875 694.503906 C 819.507812 700.152344 813.269531 700.839844 805.675781 700.175781 C 792.8125 689.261719 796.984375 644.851562 817.019531 651.007812 Z M 817.019531 651.007812 " fill-opacity="1" fill-rule="evenodd"/><path fill="#000000" d="M 626.109375 669.917969 C 628.328125 670.226562 627.703125 673.363281 628.003906 675.589844 C 602.75 717.769531 579.390625 761.84375 556.179688 806.0625 C 556.933594 793.710938 563.773438 781.617188 569.410156 770.132812 C 585.507812 737.320312 608.820312 703.324219 626.109375 669.917969 Z M 626.109375 669.917969 " fill-opacity="1" fill-rule="evenodd"/><path fill="#000000" d="M 548.617188 679.375 C 550.816406 679.066406 551.980469 679.792969 552.398438 681.261719 C 542.417969 705.320312 533.730469 730.660156 520.269531 751.226562 C 518.929688 758.714844 520.136719 768.734375 512.707031 770.132812 C 515.601562 738.296875 538.957031 710.726562 548.617188 679.375 Z M 548.617188 679.375 " fill-opacity="1" fill-rule="evenodd"/><path fill="#000000" d="M 601.542969 685.042969 C 604.753906 684.347656 605.109375 686.519531 605.316406 688.824219 C 582.914062 724.398438 559.222656 758.683594 541.054688 798.496094 C 541.828125 777.730469 557.257812 760.765625 567.519531 743.660156 C 579.445312 723.777344 590.296875 705.011719 601.542969 685.042969 Z M 601.542969 685.042969 " fill-opacity="1" fill-rule="evenodd"/><path fill="#000000" d="M 575.078125 690.722656 C 578.292969 690.023438 578.644531 692.195312 578.859375 694.503906 C 567.734375 708.261719 560.5 724.679688 550.511719 739.878906 C 541.152344 754.117188 532.238281 769.652344 520.269531 781.480469 C 535.953125 748.640625 558.5 722.671875 575.078125 690.722656 Z M 575.078125 690.722656 " fill-opacity="1" fill-rule="evenodd"/><path fill="#000000" d="M 629.890625 702.0625 C 632.0625 702.730469 634.683594 705.394531 631.785156 705.84375 C 625.226562 723.800781 614.570312 740.253906 605.316406 756.898438 C 596.203125 773.304688 589.730469 792.316406 575.074219 804.171875 C 592.914062 769.699219 612.359375 736.835938 629.890625 702.0625 Z M 629.890625 702.0625 " fill-opacity="1" fill-rule="evenodd"/><path fill="#000000" d="M 743.304688 717.191406 C 743.695312 724.515625 736.828125 724.582031 735.742188 730.429688 C 737.449219 733.761719 739.96875 736.285156 743.304688 737.996094 C 732.472656 740.390625 742.496094 763.65625 733.855469 768.246094 C 728.066406 758.289062 723.75 702.097656 743.304688 717.191406 Z M 743.304688 717.191406 " fill-opacity="1" fill-rule="evenodd"/><path fill="#000000" d="M 764.09375 717.191406 C 764.59375 723.367188 756.761719 721.199219 756.53125 726.644531 C 757.148438 732.960938 759.78125 737.265625 764.09375 739.882812 C 764.386719 745.21875 758.75 744.621094 756.53125 747.449219 C 755.644531 754.128906 759.625 765.667969 750.863281 764.464844 C 750.863281 746.597656 740.679688 704.550781 764.09375 717.191406 Z M 764.09375 717.191406 " fill-opacity="1" fill-rule="evenodd"/><path fill="#000000" d="M 722.511719 717.191406 C 726.714844 729.996094 723.292969 750.449219 724.398438 766.351562 C 716.152344 765.777344 715.996094 771.953125 709.28125 768.246094 C 704.269531 756.320312 697.402344 704.851562 722.511719 717.191406 Z M 718.730469 760.679688 C 716.320312 753.519531 722.609375 731.722656 714.949219 724.753906 C 712.265625 733.664062 710.191406 756.839844 718.730469 760.679688 Z M 718.730469 760.679688 " fill-opacity="1" fill-rule="evenodd"/><path fill="#000000" d="M 236.738281 792.824219 C 231.824219 791.417969 225.367188 785.847656 219.730469 790.9375 C 218.09375 799.507812 229.171875 795.355469 229.179688 802.285156 C 226.746094 804.894531 220.972656 804.152344 215.949219 804.171875 C 203.242188 787.257812 236.820312 769.027344 236.738281 792.824219 Z M 236.738281 792.824219 " fill-opacity="1" fill-rule="evenodd"/><path fill="#000000" d="M 752.738281 796.589844 C 753.621094 802.484375 747.984375 803.355469 745.175781 800.371094 C 745.632812 797.050781 748.429688 796.066406 752.738281 796.589844 Z M 752.738281 796.589844 " fill-opacity="1" fill-rule="evenodd"/><path fill="#000000" d="M 743.304688 798.484375 C 742.773438 804.886719 739.5625 810.078125 748.972656 809.828125 C 742.589844 827.160156 726.066406 799.558594 743.304688 798.484375 Z M 743.304688 798.484375 " fill-opacity="1" fill-rule="evenodd"/><g clip-path="url(#23ea1c7113)"><path fill="#000000" d="M 782.996094 841.988281 C 750.277344 847.457031 719.394531 842.457031 675.257812 841.988281 C 653.121094 841.75 629.59375 841.988281 605.320312 841.988281 C 583.367188 841.988281 560.480469 837.597656 539.167969 838.207031 C 531.800781 838.421875 525.578125 841.632812 518.375 841.988281 C 469.59375 844.386719 409.324219 841.550781 353.933594 838.207031 C 296.59375 834.738281 236.480469 838.875 180.039062 832.539062 C 178.875 830.851562 177.753906 829.160156 180.039062 828.757812 C 179.507812 825.378906 181.820312 824.875 181.925781 826.863281 C 199.589844 832.785156 220.652344 830.644531 240.519531 830.644531 C 377.339844 830.648438 511.285156 836.320312 633.671875 836.320312 C 688.875 836.3125 736.007812 839.222656 782.996094 841.988281 Z M 782.996094 841.988281 " fill-opacity="1" fill-rule="evenodd"/></g><path fill="#000000" d="M 790.554688 17.566406 C 587.074219 7.089844 392.699219 7.027344 195.160156 -1.339844 C 188.339844 15.960938 191.378906 36 191.378906 53.5 C 191.378906 176.09375 183.199219 309.410156 185.707031 412.761719 C 186.234375 434.210938 187.28125 455.902344 187.601562 477.054688 C 188.558594 542.140625 182.992188 616.289062 185.707031 692.609375 C 185.820312 695.746094 185.164062 700.683594 185.707031 703.957031 C 187.480469 714.679688 186.894531 706.839844 185.707031 720.972656 C 184.402344 736.546875 185.023438 760.09375 183.820312 775.804688 C 182.730469 790.03125 187.339844 806.144531 178.152344 811.734375 C 171.242188 805.777344 174.273438 789.734375 174.375 777.699219 C 175.40625 641.289062 179.441406 446.78125 178.152344 325.777344 C 177.730469 286.992188 180.269531 245.042969 181.925781 208.546875 C 183.503906 173.910156 180.527344 137.84375 181.925781 102.65625 C 183.113281 72.894531 186.550781 43.015625 185.707031 13.785156 C 185.496094 6.433594 185.242188 -0.808594 181.925781 -7.015625 C 375.425781 -5.054688 595.238281 6.230469 794.339844 8.113281 C 810.710938 24.511719 829.800781 38.179688 845.375 55.386719 C 846.625 143.628906 843.90625 237.949219 839.703125 314.4375 C 852.011719 305.613281 839.589844 285.363281 847.265625 270.945312 C 851.171875 263.605469 859.632812 260.976562 866.164062 255.820312 C 872.96875 250.453125 876.539062 242.84375 885.066406 242.585938 C 897.109375 251.960938 899.484375 271.023438 907.746094 284.1875 C 958.558594 304.3125 974.277344 355.992188 1002.25 403.304688 C 1008.148438 413.273438 1019.410156 420.019531 1017.375 433.558594 C 1002.601562 431.648438 999.355469 414.382812 992.800781 403.304688 C 986.390625 392.46875 978.128906 382.382812 972.007812 371.164062 C 959.519531 348.25 950.707031 322.59375 928.539062 306.875 C 922.515625 302.609375 914.289062 300.941406 907.746094 297.421875 C 902.628906 294.667969 900.082031 289.476562 890.734375 287.964844 C 885.546875 277.402344 877.621094 269.574219 877.503906 253.925781 C 847.71875 279.4375 887.273438 335.03125 909.636719 350.363281 C 904.726562 395.757812 931.09375 425.855469 945.546875 458.144531 C 933.84375 458.503906 934.558594 446.445312 926.648438 443.019531 C 927.039062 452.652344 937.886719 459.980469 934.207031 467.597656 C 913.554688 454.222656 915.917969 417.824219 905.859375 393.851562 C 897.519531 405.035156 902.308594 424.210938 900.1875 443.019531 C 897.898438 463.320312 892.460938 473.476562 879.398438 482.726562 C 876.648438 504.859375 900.945312 525.144531 920.976562 530 C 931.488281 532.542969 944.351562 528.910156 955.003906 531.894531 C 972.25 536.714844 987.632812 553.125 1002.253906 562.144531 C 1007.3125 565.261719 1018.785156 564.175781 1015.484375 573.488281 C 1013.226562 580.710938 1002.464844 572.660156 1000.367188 571.601562 C 995.441406 569.09375 989.957031 565.375 985.242188 562.144531 C 976.207031 555.941406 968.511719 544.1875 958.785156 541.34375 C 944.414062 537.132812 928.988281 542.742188 915.3125 537.5625 C 898.347656 531.136719 894.414062 519.042969 879.402344 511.089844 C 880.589844 547.535156 881.296875 586.925781 879.402344 630.210938 C 878.480469 651.164062 876.417969 668.957031 866.164062 681.265625 C 858.332031 684.140625 849.527344 686.054688 837.816406 685.046875 C 828.722656 712.867188 841.230469 743.863281 834.039062 775.808594 C 831.804688 785.730469 821.035156 798.292969 815.140625 807.953125 C 808.136719 819.410156 802.441406 832.492188 792.453125 836.320312 C 796.164062 815.707031 819.167969 798.132812 824.585938 777.699219 C 831.859375 750.269531 819.398438 719.105469 828.367188 686.9375 C 825.8125 677.789062 814.023438 689.628906 811.355469 681.265625 C 809.046875 678.402344 807.644531 664.984375 811.355469 662.359375 C 811.320312 654.292969 821.222656 663.679688 828.367188 660.472656 C 830.367188 605.199219 831.265625 554.957031 832.148438 499.746094 C 832.066406 491 820.570312 493.675781 817.023438 488.398438 C 814.039062 469.890625 789.269531 453.984375 805.679688 433.5625 C 802.78125 426.382812 798.066406 421.011719 796.230469 412.765625 C 788.808594 543.96875 796.292969 664.332031 790.5625 794.722656 C 790.027344 806.953125 790.363281 820.75 784.890625 832.539062 C 785.128906 837.214844 782.578125 835.75 783.003906 832.539062 C 784.566406 584.058594 788.621094 277.722656 790.558594 17.566406 Z M 796.226562 408.980469 C 796.023438 400.324219 802.648438 393.582031 803.789062 384.398438 C 804.597656 377.863281 796.683594 367.242188 805.675781 363.597656 C 811.820312 373.464844 812.082031 383.535156 818.90625 391.960938 C 824.933594 399.390625 838.078125 401.222656 839.703125 412.761719 C 823.023438 411.800781 817.71875 399.460938 807.574219 391.960938 C 794.457031 421.28125 822.976562 438.796875 841.597656 448.6875 C 846.863281 444.5 854.371094 442.554688 864.277344 443.015625 C 864.34375 436.152344 863.214844 428.082031 868.058594 426 C 878.808594 423.214844 886.277344 427.207031 894.519531 424.105469 C 890.398438 402.699219 856.359375 427.464844 849.160156 412.761719 C 861.746094 405.183594 892.230469 415.507812 898.304688 401.414062 C 898.597656 391.347656 884.296875 396.695312 892.636719 388.179688 C 884.136719 379.695312 867.5625 373.394531 852.9375 376.832031 C 847.675781 360.667969 835.589844 351.328125 824.589844 340.90625 C 833.332031 334.003906 837.171875 345.089844 845.382812 344.6875 C 844.613281 336.628906 847.214844 325.207031 843.492188 320.105469 C 833.648438 320.96875 823.800781 321.832031 815.144531 323.886719 C 806.589844 331.089844 806.382812 346.644531 803.800781 359.8125 C 795.046875 340.144531 806.121094 309.792969 832.152344 312.539062 C 834.273438 223.523438 839.171875 147.96875 835.925781 57.269531 C 826.402344 44.742188 813.046875 36.050781 800.015625 27.019531 C 798.792969 139.539062 793.855469 287.003906 796.226562 408.980469 Z M 894.515625 276.617188 C 890.078125 269.707031 890.066406 258.371094 883.171875 253.921875 C 884.628906 263.816406 887.460938 272.328125 894.515625 276.617188 Z M 851.042969 278.507812 C 849.535156 292.875 852.246094 308.726562 852.929688 323.890625 C 853.472656 335.832031 848.5 351.898438 858.601562 357.925781 C 859.070312 325.46875 854.464844 303.164062 860.488281 276.621094 C 860.589844 273.363281 859.035156 271.769531 856.710938 270.945312 C 854.816406 273.464844 853.59375 276.652344 851.042969 278.507812 Z M 871.835938 369.269531 C 871.253906 354.789062 880.121094 326.085938 868.054688 318.21875 C 868.90625 339.847656 865.023438 354.816406 871.835938 369.269531 Z M 885.066406 373.050781 C 891.953125 375.617188 894.402344 382.617188 902.078125 384.398438 C 897.941406 368.992188 901.472656 345.925781 885.066406 342.796875 Z M 869.941406 431.667969 C 868.53125 437.484375 875.128906 435.304688 873.71875 441.121094 C 882.136719 440.714844 890.917969 440.679688 892.625 433.554688 C 890.207031 428.164062 874.800781 428.664062 869.941406 431.667969 Z M 866.160156 465.707031 C 864.859375 458.101562 867.972656 454.914062 868.054688 448.6875 C 843.152344 456.46875 821.742188 450.125 807.566406 437.339844 C 798.511719 471.664062 843.601562 477.070312 866.160156 465.707031 Z M 873.722656 461.925781 C 883.746094 461.242188 888.601562 455.382812 892.625 448.6875 C 889.492188 445.519531 881.523438 447.1875 875.617188 446.800781 C 874.46875 451.320312 872.894531 455.421875 873.722656 461.925781 Z M 873.722656 475.160156 C 883.300781 477.296875 891.816406 464.269531 885.066406 461.925781 C 883.5625 468.617188 871.605469 464.855469 873.722656 475.160156 Z M 820.800781 477.054688 C 825.789062 499.167969 850.207031 477.414062 869.941406 480.835938 C 870.039062 475.066406 868.226562 471.207031 864.277344 469.488281 C 854.289062 476.515625 837.546875 476.78125 820.800781 477.054688 Z M 868.054688 501.632812 C 867.3125 494.820312 872.527344 489.589844 866.160156 488.394531 C 867.285156 492.3125 863.828125 500.816406 868.054688 501.632812 Z M 849.15625 495.960938 C 849.054688 512.914062 849.0625 529.945312 849.15625 543.230469 C 849.207031 551.195312 843.371094 561.097656 852.929688 565.921875 C 860.695312 562.90625 854.796875 554.296875 854.820312 548.90625 C 854.890625 532.152344 855.910156 510.835938 854.820312 492.179688 C 854.402344 490.710938 853.238281 489.976562 851.042969 490.292969 C 850.933594 492.703125 848.617188 492.90625 849.15625 495.960938 Z M 837.8125 582.9375 C 837.8125 612.023438 834.90625 640.003906 841.589844 662.355469 C 857.523438 658.847656 850.746094 641.371094 851.042969 628.320312 C 851.394531 612.558594 854.738281 595.070312 852.929688 579.15625 C 851.804688 572.722656 842.023438 574.945312 841.589844 567.8125 C 842.210938 543.222656 844.542969 520.339844 843.480469 494.066406 C 843.0625 492.59375 841.894531 491.867188 839.699219 492.175781 C 836.347656 517.003906 837.8125 552.164062 837.8125 582.9375 Z M 868.054688 522.429688 C 868.878906 515.980469 872.527344 506.839844 866.160156 503.523438 C 867.347656 509.269531 863.742188 519.8125 868.054688 522.429688 Z M 849.15625 668.023438 C 842.347656 671.84375 832.976562 671.113281 818.90625 671.808594 C 821.769531 681.453125 846.195312 674.09375 856.710938 673.699219 C 872.554688 648.21875 863.660156 593.53125 868.054688 571.59375 C 867.632812 570.117188 866.472656 569.390625 864.277344 569.699219 C 851.050781 598.28125 873.367188 654.464844 849.15625 668.023438 Z M 849.15625 668.023438 " fill-opacity="1" fill-rule="evenodd"/><path fill="#000000" d="M 297.226562 142.363281 C 302.539062 145.394531 293.128906 149.429688 293.445312 153.710938 C 289.804688 162.839844 293.464844 143.253906 297.226562 142.363281 Z M 297.226562 142.363281 " fill-opacity="1" fill-rule="evenodd"/><path fill="#000000" d="M 423.871094 376.832031 C 420.675781 384.355469 422.386719 396.777344 421.980469 407.085938 L 429.535156 407.085938 C 430.0625 399.058594 426.628906 386.261719 433.316406 376.832031 C 450.140625 374.472656 472.742188 375.703125 495.691406 378.726562 C 492.769531 381.472656 494.023438 388.40625 493.800781 393.847656 C 500.90625 394.027344 498.191406 384.378906 503.253906 382.5 C 513.703125 380.246094 505.320312 396.820312 510.8125 399.519531 C 507.863281 405.332031 504.234375 396.238281 503.253906 393.847656 C 498.40625 394.042969 500.214844 400.894531 497.582031 403.304688 C 498.378906 407.554688 507.617188 403.355469 508.925781 407.085938 C 517.046875 403.867188 510.027344 385.5 520.269531 384.394531 C 524.570312 388.921875 516.121094 391.355469 518.375 399.519531 C 522.738281 396.117188 530.214844 381.558594 520.269531 380.613281 C 522.40625 372.859375 528.375 382.089844 535.386719 380.613281 L 535.386719 390.066406 C 542.613281 390.367188 541.53125 382.351562 544.835938 378.726562 C 557.597656 384.757812 560.273438 407.714844 544.835938 412.765625 C 538.570312 412.097656 541.871094 401.863281 541.058594 395.746094 C 535.492188 396.476562 537.367188 404.652344 533.5 407.089844 C 535.027344 413.757812 545.035156 411.9375 544.835938 420.324219 C 510.949219 400.5625 442.917969 405.75 401.191406 414.65625 C 403.703125 410.867188 409.578125 410.441406 414.421875 408.984375 C 415.703125 402.074219 417.054688 395.234375 416.308594 386.289062 C 410.304688 391 407.402344 398.8125 406.859375 408.984375 C 397.402344 408.0625 401.371094 388.953125 403.078125 382.507812 C 411.945312 382.226562 402.144531 390.179688 406.859375 391.96875 C 410.007812 389.445312 409.789062 383.5625 412.527344 380.621094 C 411.117188 376.355469 401.921875 379.878906 397.410156 378.730469 C 401.96875 369.753906 414.472656 378.785156 423.871094 376.832031 Z M 444.660156 405.199219 C 446.066406 400.933594 455.265625 404.453125 459.777344 403.304688 C 456.847656 393.894531 467.753906 381.796875 456.003906 380.613281 C 456.257812 389.695312 455.558594 397.816406 448.441406 399.519531 C 447.113281 391.265625 451.65625 388.875 450.328125 380.613281 L 442.765625 380.613281 C 440.640625 386.703125 438.523438 401.890625 444.660156 405.199219 Z M 463.558594 397.632812 C 472.847656 394.015625 468.617188 403.921875 474.902344 403.304688 C 469.953125 398.804688 477.609375 381.6875 469.234375 380.613281 C 467.722656 386.671875 463.648438 390.160156 463.558594 397.632812 Z M 478.683594 397.632812 C 485.03125 396.695312 487.667969 385.316406 484.347656 380.617188 L 478.683594 380.617188 Z M 437.101562 403.304688 C 438.472656 401.375 437.992188 389.835938 435.210938 386.285156 C 432.710938 389.335938 431.125 402.945312 437.101562 403.304688 Z M 527.824219 407.085938 C 530.949219 405.648438 530.949219 391.503906 527.824219 390.066406 C 526.191406 394.660156 517.519531 407.363281 527.824219 407.085938 Z M 546.726562 403.304688 C 554.109375 405.382812 554.300781 392.042969 548.613281 391.960938 C 548.660156 396.417969 545.363281 397.527344 546.726562 403.304688 Z M 490.019531 405.199219 C 492.90625 402.480469 491.863281 395.335938 486.246094 395.742188 C 485.023438 400.347656 482.425781 405.46875 490.019531 405.199219 Z M 490.019531 405.199219 " fill-opacity="1" fill-rule="evenodd"/></svg>