<svg xmlns="http://www.w3.org/2000/svg" xmlns:xlink="http://www.w3.org/1999/xlink" width="1587" zoomAndPan="magnify" viewBox="0 0 1190.25 842.249997" height="1122" preserveAspectRatio="xMidYMid meet" version="1.0"><defs><clipPath id="9d1db785ec"><path d="M 166 180 L 1053.289062 180 L 1053.289062 841.5 L 166 841.5 Z M 166 180 " clip-rule="nonzero"/></clipPath><clipPath id="52ca1d39a6"><path d="M 136.855469 195 L 212 195 L 212 226 L 136.855469 226 Z M 136.855469 195 " clip-rule="nonzero"/></clipPath><clipPath id="4d51d037cd"><path d="M 272 781 L 874 781 L 874 841.5 L 272 841.5 Z M 272 781 " clip-rule="nonzero"/></clipPath><clipPath id="346eec4de3"><path d="M 812 240 L 1053.289062 240 L 1053.289062 841.5 L 812 841.5 Z M 812 240 " clip-rule="nonzero"/></clipPath><clipPath id="e1e3f10d86"><path d="M 812 240 L 1053.289062 240 L 1053.289062 841.5 L 812 841.5 Z M 812 240 " clip-rule="nonzero"/></clipPath></defs><g clip-path="url(#9d1db785ec)"><path fill="#dde2dc" d="M 993.195312 240.460938 L 993.195312 180.363281 L 873.003906 180.363281 L 873.003906 240.460938 L 812.910156 240.460938 L 812.910156 270.507812 L 287.089844 270.507812 L 166.902344 676.164062 L 332.160156 676.164062 L 332.160156 781.332031 C 329.542969 781.339844 326.9375 781.519531 324.34375 781.871094 C 321.75 782.21875 319.191406 782.738281 316.664062 783.421875 C 314.136719 784.105469 311.667969 784.949219 309.25 785.957031 C 306.835938 786.964844 304.496094 788.125 302.234375 789.4375 C 299.96875 790.75 297.800781 792.203125 295.726562 793.796875 C 293.652344 795.394531 291.691406 797.117188 289.839844 798.972656 C 287.992188 800.824219 286.273438 802.789062 284.679688 804.863281 C 283.085938 806.941406 281.636719 809.113281 280.328125 811.378906 C 279.4375 812.9375 278.636719 814.539062 277.925781 816.1875 L 276.574219 819.34375 C 275.445312 822.074219 274.542969 824.878906 273.867188 827.757812 C 273.867188 828.808594 273.867188 829.859375 273.867188 830.761719 C 272.960938 834.265625 272.359375 837.820312 272.066406 841.429688 L 1053.289062 841.429688 L 1053.289062 240.460938 Z M 993.195312 240.460938 " fill-opacity="1" fill-rule="nonzero"/></g><path fill="#ffe100" d="M 452.347656 210.410156 C 452.347656 212.132812 452.304688 213.851562 452.222656 215.570312 C 452.136719 217.289062 452.011719 219.007812 451.839844 220.71875 C 451.671875 222.433594 451.460938 224.140625 451.210938 225.84375 C 450.957031 227.546875 450.664062 229.242188 450.328125 230.929688 C 449.992188 232.617188 449.613281 234.296875 449.195312 235.964844 C 448.777344 237.636719 448.320312 239.292969 447.820312 240.941406 C 447.320312 242.585938 446.78125 244.222656 446.199219 245.839844 C 445.621094 247.460938 445 249.066406 444.34375 250.65625 C 443.683594 252.246094 442.988281 253.820312 442.25 255.375 C 441.515625 256.933594 440.742188 258.46875 439.929688 259.988281 C 439.117188 261.503906 438.269531 263.003906 437.386719 264.480469 C 436.5 265.957031 435.582031 267.410156 434.625 268.839844 C 433.667969 270.269531 432.675781 271.679688 431.652344 273.0625 C 430.625 274.441406 429.566406 275.800781 428.476562 277.128906 C 427.382812 278.460938 426.261719 279.761719 425.105469 281.039062 C 423.949219 282.3125 422.761719 283.558594 421.546875 284.777344 C 420.328125 285.996094 419.082031 287.179688 417.808594 288.335938 C 416.53125 289.492188 415.230469 290.617188 413.898438 291.707031 C 412.566406 292.800781 411.210938 293.859375 409.828125 294.882812 C 408.445312 295.910156 407.039062 296.898438 405.609375 297.855469 C 404.179688 298.8125 402.722656 299.734375 401.25 300.617188 C 399.773438 301.503906 398.273438 302.351562 396.757812 303.164062 C 395.238281 303.972656 393.703125 304.746094 392.148438 305.484375 C 390.589844 306.21875 389.019531 306.917969 387.425781 307.574219 C 385.835938 308.234375 384.230469 308.851562 382.613281 309.433594 C 380.992188 310.011719 379.359375 310.550781 377.710938 311.050781 C 376.0625 311.550781 374.40625 312.011719 372.734375 312.429688 C 371.066406 312.847656 369.386719 313.222656 367.699219 313.558594 C 366.011719 313.894531 364.316406 314.191406 362.613281 314.441406 C 360.910156 314.695312 359.203125 314.90625 357.492188 315.074219 C 355.777344 315.242188 354.0625 315.371094 352.34375 315.453125 C 350.625 315.539062 348.902344 315.582031 347.183594 315.582031 C 345.460938 315.582031 343.742188 315.539062 342.023438 315.453125 C 340.304688 315.371094 338.585938 315.242188 336.875 315.074219 C 335.164062 314.90625 333.453125 314.695312 331.753906 314.441406 C 330.050781 314.191406 328.355469 313.894531 326.667969 313.558594 C 324.976562 313.222656 323.300781 312.847656 321.628906 312.429688 C 319.960938 312.011719 318.300781 311.550781 316.65625 311.050781 C 315.007812 310.550781 313.375 310.011719 311.753906 309.433594 C 310.132812 308.851562 308.527344 308.234375 306.9375 307.574219 C 305.347656 306.917969 303.773438 306.21875 302.21875 305.484375 C 300.664062 304.746094 299.125 303.972656 297.609375 303.164062 C 296.089844 302.351562 294.59375 301.503906 293.117188 300.617188 C 291.640625 299.734375 290.1875 298.8125 288.757812 297.855469 C 287.324219 296.898438 285.917969 295.910156 284.535156 294.882812 C 283.152344 293.859375 281.796875 292.800781 280.46875 291.707031 C 279.136719 290.617188 277.832031 289.492188 276.558594 288.335938 C 275.285156 287.179688 274.039062 285.996094 272.820312 284.777344 C 271.601562 283.558594 270.417969 282.3125 269.261719 281.039062 C 268.105469 279.761719 266.980469 278.460938 265.890625 277.128906 C 264.796875 275.800781 263.738281 274.441406 262.714844 273.0625 C 261.6875 271.679688 260.699219 270.269531 259.742188 268.839844 C 258.785156 267.410156 257.863281 265.957031 256.980469 264.480469 C 256.09375 263.003906 255.246094 261.503906 254.4375 259.988281 C 253.625 258.46875 252.851562 256.933594 252.117188 255.375 C 251.378906 253.820312 250.683594 252.246094 250.023438 250.65625 C 249.363281 249.066406 248.746094 247.460938 248.164062 245.839844 C 247.585938 244.222656 247.046875 242.585938 246.546875 240.941406 C 246.046875 239.292969 245.589844 237.636719 245.171875 235.964844 C 244.75 234.296875 244.375 232.617188 244.039062 230.929688 C 243.703125 229.242188 243.410156 227.546875 243.15625 225.84375 C 242.902344 224.140625 242.695312 222.433594 242.523438 220.71875 C 242.355469 219.007812 242.230469 217.289062 242.144531 215.570312 C 242.0625 213.851562 242.019531 212.132812 242.019531 210.410156 C 242.019531 208.691406 242.0625 206.96875 242.144531 205.25 C 242.230469 203.53125 242.355469 201.816406 242.523438 200.101562 C 242.695312 198.390625 242.902344 196.683594 243.15625 194.980469 C 243.410156 193.277344 243.703125 191.582031 244.039062 189.894531 C 244.375 188.207031 244.75 186.527344 245.171875 184.855469 C 245.589844 183.1875 246.046875 181.527344 246.546875 179.882812 C 247.046875 178.234375 247.585938 176.601562 248.164062 174.980469 C 248.746094 173.359375 249.363281 171.753906 250.023438 170.164062 C 250.683594 168.574219 251.378906 167 252.117188 165.445312 C 252.851562 163.890625 253.625 162.351562 254.4375 160.835938 C 255.246094 159.316406 256.09375 157.820312 256.980469 156.34375 C 257.863281 154.867188 258.785156 153.414062 259.742188 151.980469 C 260.699219 150.550781 261.6875 149.144531 262.714844 147.761719 C 263.738281 146.378906 264.796875 145.023438 265.890625 143.691406 C 266.980469 142.363281 268.105469 141.058594 269.261719 139.785156 C 270.417969 138.507812 271.601562 137.261719 272.820312 136.046875 C 274.039062 134.828125 275.285156 133.640625 276.558594 132.484375 C 277.832031 131.328125 279.136719 130.207031 280.46875 129.113281 C 281.796875 128.023438 283.152344 126.964844 284.535156 125.9375 C 285.917969 124.914062 287.324219 123.921875 288.757812 122.964844 C 290.1875 122.007812 291.640625 121.089844 293.117188 120.203125 C 294.59375 119.320312 296.089844 118.472656 297.609375 117.660156 C 299.125 116.847656 300.664062 116.074219 302.21875 115.339844 C 303.773438 114.601562 305.347656 113.90625 306.9375 113.246094 C 308.527344 112.589844 310.132812 111.96875 311.753906 111.390625 C 313.375 110.808594 315.007812 110.269531 316.65625 109.769531 C 318.300781 109.269531 319.960938 108.8125 321.628906 108.394531 C 323.300781 107.976562 324.976562 107.597656 326.667969 107.261719 C 328.355469 106.925781 330.050781 106.632812 331.753906 106.378906 C 333.453125 106.128906 335.164062 105.917969 336.875 105.746094 C 338.585938 105.578125 340.304688 105.453125 342.023438 105.367188 C 343.742188 105.285156 345.460938 105.242188 347.183594 105.242188 C 348.902344 105.242188 350.625 105.285156 352.34375 105.367188 C 354.0625 105.453125 355.777344 105.578125 357.492188 105.746094 C 359.203125 105.917969 360.910156 106.128906 362.613281 106.378906 C 364.316406 106.632812 366.011719 106.925781 367.699219 107.261719 C 369.386719 107.597656 371.066406 107.976562 372.734375 108.394531 C 374.40625 108.8125 376.0625 109.269531 377.710938 109.769531 C 379.359375 110.269531 380.992188 110.808594 382.613281 111.390625 C 384.230469 111.96875 385.835938 112.589844 387.425781 113.246094 C 389.019531 113.90625 390.589844 114.601562 392.148438 115.339844 C 393.703125 116.074219 395.238281 116.847656 396.757812 117.660156 C 398.273438 118.472656 399.773438 119.320312 401.25 120.203125 C 402.722656 121.089844 404.179688 122.007812 405.609375 122.964844 C 407.039062 123.921875 408.445312 124.914062 409.828125 125.9375 C 411.210938 126.964844 412.566406 128.023438 413.898438 129.113281 C 415.230469 130.207031 416.53125 131.328125 417.808594 132.484375 C 419.082031 133.640625 420.328125 134.828125 421.546875 136.046875 C 422.761719 137.261719 423.949219 138.507812 425.105469 139.785156 C 426.261719 141.058594 427.382812 142.363281 428.476562 143.691406 C 429.566406 145.023438 430.625 146.378906 431.652344 147.761719 C 432.675781 149.144531 433.667969 150.550781 434.625 151.980469 C 435.582031 153.414062 436.5 154.867188 437.386719 156.34375 C 438.269531 157.820312 439.117188 159.316406 439.929688 160.835938 C 440.742188 162.351562 441.515625 163.890625 442.25 165.445312 C 442.988281 167 443.683594 168.574219 444.34375 170.164062 C 445 171.753906 445.621094 173.359375 446.199219 174.980469 C 446.78125 176.601562 447.320312 178.234375 447.820312 179.882812 C 448.320312 181.527344 448.777344 183.1875 449.195312 184.855469 C 449.613281 186.527344 449.992188 188.207031 450.328125 189.894531 C 450.664062 191.582031 450.957031 193.277344 451.210938 194.980469 C 451.460938 196.683594 451.671875 198.390625 451.839844 200.101562 C 452.011719 201.816406 452.136719 203.53125 452.222656 205.25 C 452.304688 206.96875 452.347656 208.691406 452.347656 210.410156 Z M 452.347656 210.410156 " fill-opacity="1" fill-rule="nonzero"/><path fill="#efcc03" d="M 401.265625 300.554688 C 397.210938 303.019531 393.007812 305.195312 388.652344 307.078125 C 384.300781 308.964844 379.835938 310.539062 375.265625 311.8125 C 370.691406 313.082031 366.054688 314.03125 361.355469 314.664062 C 356.652344 315.292969 351.925781 315.601562 347.183594 315.582031 C 344.511719 315.574219 341.839844 315.46875 339.175781 315.257812 C 336.511719 315.050781 333.859375 314.742188 331.21875 314.328125 C 328.578125 313.917969 325.957031 313.40625 323.355469 312.796875 C 320.75 312.183594 318.175781 311.476562 315.628906 310.667969 C 313.082031 309.859375 310.566406 308.957031 308.089844 307.957031 C 305.609375 306.960938 303.171875 305.867188 300.777344 304.683594 C 298.378906 303.496094 296.03125 302.222656 293.734375 300.859375 C 291.433594 299.496094 289.191406 298.046875 287.003906 296.511719 C 284.816406 294.976562 282.6875 293.359375 280.625 291.664062 C 278.558594 289.964844 276.5625 288.191406 274.632812 286.34375 C 272.703125 284.492188 270.84375 282.574219 269.0625 280.582031 C 267.277344 278.589844 265.574219 276.535156 263.949219 274.414062 C 262.320312 272.292969 260.777344 270.113281 259.316406 267.875 C 257.855469 265.636719 256.484375 263.34375 255.199219 261.003906 C 253.910156 258.660156 252.71875 256.269531 251.613281 253.835938 C 250.511719 251.402344 249.5 248.929688 248.585938 246.417969 C 247.671875 243.90625 246.851562 241.363281 246.132812 238.789062 C 245.410156 236.214844 244.789062 233.617188 244.265625 230.996094 C 243.742188 228.375 243.320312 225.738281 242.996094 223.085938 C 242.675781 220.429688 242.453125 217.769531 242.335938 215.097656 C 242.214844 212.429688 242.199219 209.757812 242.285156 207.085938 C 242.367188 204.414062 242.554688 201.75 242.839844 199.09375 C 243.128906 196.433594 243.519531 193.792969 244.007812 191.164062 C 244.496094 188.535156 245.085938 185.929688 245.773438 183.347656 C 246.460938 180.765625 247.246094 178.210938 248.128906 175.6875 C 249.011719 173.167969 249.988281 170.679688 251.058594 168.230469 C 252.132812 165.78125 253.292969 163.378906 254.550781 161.019531 C 255.804688 158.660156 257.148438 156.351562 258.578125 154.09375 C 260.011719 151.835938 261.527344 149.636719 263.125 147.496094 C 264.722656 145.351562 266.402344 143.273438 268.160156 141.261719 C 269.917969 139.246094 271.75 137.300781 273.65625 135.429688 C 275.558594 133.554688 277.535156 131.753906 279.578125 130.03125 C 277.0625 136.886719 275.171875 143.914062 273.910156 151.105469 C 272.648438 158.300781 272.035156 165.546875 272.066406 172.851562 C 272.066406 174.941406 272.121094 177.027344 272.226562 179.113281 C 272.332031 181.203125 272.488281 183.285156 272.695312 185.363281 C 272.902344 187.441406 273.160156 189.515625 273.46875 191.582031 C 273.777344 193.648438 274.132812 195.707031 274.542969 197.753906 C 274.953125 199.804688 275.414062 201.839844 275.921875 203.867188 C 276.429688 205.894531 276.988281 207.90625 277.597656 209.90625 C 278.207031 211.902344 278.863281 213.886719 279.566406 215.851562 C 280.273438 217.820312 281.027344 219.769531 281.824219 221.699219 C 282.625 223.628906 283.472656 225.535156 284.367188 227.425781 C 285.261719 229.3125 286.203125 231.179688 287.1875 233.019531 C 288.175781 234.863281 289.203125 236.679688 290.277344 238.472656 C 291.355469 240.261719 292.472656 242.027344 293.632812 243.765625 C 294.792969 245.5 295.996094 247.207031 297.242188 248.886719 C 298.488281 250.566406 299.773438 252.210938 301.097656 253.824219 C 302.421875 255.441406 303.789062 257.023438 305.191406 258.570312 C 306.59375 260.117188 308.035156 261.632812 309.511719 263.109375 C 310.988281 264.585938 312.5 266.027344 314.050781 267.429688 C 315.597656 268.832031 317.179688 270.195312 318.792969 271.523438 C 320.410156 272.847656 322.054688 274.132812 323.734375 275.378906 C 325.410156 276.625 327.117188 277.828125 328.855469 278.988281 C 330.589844 280.148438 332.355469 281.265625 334.148438 282.34375 C 335.9375 283.417969 337.753906 284.445312 339.597656 285.433594 C 341.441406 286.417969 343.304688 287.359375 345.191406 288.253906 C 347.082031 289.148438 348.988281 289.996094 350.921875 290.796875 C 352.851562 291.597656 354.796875 292.347656 356.765625 293.054688 C 358.730469 293.757812 360.714844 294.414062 362.710938 295.023438 C 364.710938 295.632812 366.722656 296.191406 368.75 296.699219 C 370.777344 297.210938 372.8125 297.667969 374.863281 298.078125 C 376.910156 298.488281 378.96875 298.847656 381.035156 299.15625 C 383.101562 299.464844 385.175781 299.722656 387.253906 299.929688 C 389.332031 300.136719 391.414062 300.289062 393.5 300.394531 C 395.589844 300.5 397.675781 300.554688 399.765625 300.554688 Z M 401.265625 300.554688 " fill-opacity="1" fill-rule="nonzero"/><path fill="#f8ad3b" d="M 347.183594 75.191406 C 346.195312 75.191406 345.21875 75.097656 344.253906 74.90625 C 343.285156 74.710938 342.34375 74.425781 341.433594 74.050781 C 340.523438 73.671875 339.65625 73.210938 338.835938 72.660156 C 338.015625 72.113281 337.257812 71.488281 336.558594 70.792969 C 335.863281 70.09375 335.238281 69.335938 334.691406 68.515625 C 334.144531 67.695312 333.679688 66.828125 333.304688 65.917969 C 332.925781 65.007812 332.640625 64.066406 332.449219 63.101562 C 332.253906 62.132812 332.160156 61.15625 332.160156 60.167969 L 332.160156 15.097656 C 332.160156 14.109375 332.253906 13.132812 332.449219 12.164062 C 332.640625 11.199219 332.925781 10.257812 333.304688 9.347656 C 333.679688 8.433594 334.144531 7.570312 334.691406 6.75 C 335.238281 5.929688 335.863281 5.171875 336.558594 4.472656 C 337.257812 3.773438 338.015625 3.152344 338.835938 2.605469 C 339.65625 2.054688 340.523438 1.59375 341.433594 1.214844 C 342.34375 0.839844 343.285156 0.554688 344.253906 0.359375 C 345.21875 0.167969 346.195312 0.0703125 347.183594 0.0703125 C 348.167969 0.0703125 349.144531 0.167969 350.113281 0.359375 C 351.082031 0.554688 352.019531 0.839844 352.933594 1.214844 C 353.84375 1.59375 354.710938 2.054688 355.53125 2.605469 C 356.351562 3.152344 357.109375 3.773438 357.804688 4.472656 C 358.503906 5.171875 359.125 5.929688 359.675781 6.75 C 360.222656 7.570312 360.683594 8.433594 361.0625 9.347656 C 361.441406 10.257812 361.726562 11.199219 361.917969 12.164062 C 362.109375 13.132812 362.207031 14.109375 362.207031 15.097656 L 362.207031 60.167969 C 362.207031 61.15625 362.109375 62.132812 361.917969 63.101562 C 361.726562 64.066406 361.441406 65.007812 361.0625 65.917969 C 360.683594 66.828125 360.222656 67.695312 359.675781 68.515625 C 359.125 69.335938 358.503906 70.09375 357.804688 70.792969 C 357.109375 71.488281 356.351562 72.113281 355.53125 72.660156 C 354.710938 73.210938 353.84375 73.671875 352.933594 74.050781 C 352.019531 74.425781 351.082031 74.710938 350.113281 74.90625 C 349.144531 75.097656 348.167969 75.191406 347.183594 75.191406 Z M 347.183594 75.191406 " fill-opacity="1" fill-rule="nonzero"/><path fill="#f8ad3b" d="M 347.183594 420.75 C 346.195312 420.75 345.21875 420.652344 344.253906 420.460938 C 343.285156 420.269531 342.34375 419.984375 341.433594 419.605469 C 340.523438 419.230469 339.65625 418.765625 338.835938 418.21875 C 338.015625 417.671875 337.257812 417.046875 336.558594 416.351562 C 335.863281 415.652344 335.238281 414.894531 334.691406 414.074219 C 334.144531 413.253906 333.679688 412.386719 333.304688 411.476562 C 332.925781 410.5625 332.640625 409.625 332.449219 408.65625 C 332.253906 407.691406 332.160156 406.710938 332.160156 405.726562 L 332.160156 360.652344 C 332.160156 359.667969 332.253906 358.691406 332.449219 357.722656 C 332.640625 356.753906 332.925781 355.816406 333.304688 354.902344 C 333.679688 353.992188 334.144531 353.125 334.691406 352.304688 C 335.238281 351.484375 335.863281 350.726562 336.558594 350.03125 C 337.257812 349.332031 338.015625 348.710938 338.835938 348.160156 C 339.65625 347.613281 340.523438 347.148438 341.433594 346.773438 C 342.34375 346.394531 343.285156 346.109375 344.253906 345.917969 C 345.21875 345.726562 346.195312 345.628906 347.183594 345.628906 C 348.167969 345.628906 349.144531 345.726562 350.113281 345.917969 C 351.082031 346.109375 352.019531 346.394531 352.933594 346.773438 C 353.84375 347.148438 354.710938 347.613281 355.53125 348.160156 C 356.351562 348.710938 357.109375 349.332031 357.804688 350.03125 C 358.503906 350.726562 359.125 351.484375 359.675781 352.304688 C 360.222656 353.125 360.683594 353.992188 361.0625 354.902344 C 361.441406 355.816406 361.726562 356.753906 361.917969 357.722656 C 362.109375 358.691406 362.207031 359.667969 362.207031 360.652344 L 362.207031 405.726562 C 362.207031 406.710938 362.109375 407.691406 361.917969 408.65625 C 361.726562 409.625 361.441406 410.5625 361.0625 411.476562 C 360.683594 412.386719 360.222656 413.253906 359.675781 414.074219 C 359.125 414.894531 358.503906 415.652344 357.804688 416.351562 C 357.109375 417.046875 356.351562 417.671875 355.53125 418.21875 C 354.710938 418.765625 353.84375 419.230469 352.933594 419.605469 C 352.019531 419.984375 351.082031 420.269531 350.113281 420.460938 C 349.144531 420.652344 348.167969 420.75 347.183594 420.75 Z M 347.183594 420.75 " fill-opacity="1" fill-rule="nonzero"/><path fill="#f8ad3b" d="M 542.488281 225.433594 L 497.417969 225.433594 C 496.429688 225.433594 495.453125 225.339844 494.488281 225.148438 C 493.519531 224.953125 492.582031 224.667969 491.667969 224.292969 C 490.757812 223.914062 489.890625 223.453125 489.070312 222.902344 C 488.25 222.355469 487.492188 221.730469 486.792969 221.035156 C 486.097656 220.335938 485.472656 219.578125 484.925781 218.757812 C 484.378906 217.9375 483.914062 217.070312 483.539062 216.160156 C 483.160156 215.25 482.875 214.308594 482.683594 213.34375 C 482.492188 212.375 482.394531 211.398438 482.394531 210.410156 C 482.394531 209.425781 482.492188 208.449219 482.683594 207.480469 C 482.875 206.511719 483.160156 205.574219 483.539062 204.660156 C 483.914062 203.75 484.378906 202.882812 484.925781 202.0625 C 485.472656 201.242188 486.097656 200.484375 486.792969 199.789062 C 487.492188 199.089844 488.25 198.46875 489.070312 197.917969 C 489.890625 197.371094 490.757812 196.90625 491.667969 196.53125 C 492.582031 196.152344 493.519531 195.867188 494.488281 195.675781 C 495.453125 195.484375 496.429688 195.386719 497.417969 195.386719 L 542.488281 195.386719 C 543.476562 195.386719 544.453125 195.484375 545.417969 195.675781 C 546.386719 195.867188 547.328125 196.152344 548.238281 196.53125 C 549.148438 196.90625 550.015625 197.371094 550.835938 197.917969 C 551.65625 198.46875 552.414062 199.089844 553.113281 199.789062 C 553.808594 200.484375 554.433594 201.242188 554.980469 202.0625 C 555.527344 202.882812 555.992188 203.75 556.367188 204.660156 C 556.746094 205.574219 557.03125 206.511719 557.222656 207.480469 C 557.414062 208.449219 557.511719 209.425781 557.511719 210.410156 C 557.511719 211.398438 557.414062 212.375 557.222656 213.34375 C 557.03125 214.308594 556.746094 215.25 556.367188 216.160156 C 555.992188 217.070312 555.527344 217.9375 554.980469 218.757812 C 554.433594 219.578125 553.808594 220.335938 553.113281 221.035156 C 552.414062 221.730469 551.65625 222.355469 550.835938 222.902344 C 550.015625 223.453125 549.148438 223.914062 548.238281 224.292969 C 547.328125 224.667969 546.386719 224.953125 545.417969 225.148438 C 544.453125 225.339844 543.476562 225.433594 542.488281 225.433594 Z M 542.488281 225.433594 " fill-opacity="1" fill-rule="nonzero"/><g clip-path="url(#52ca1d39a6)"><path fill="#f8ad3b" d="M 196.949219 225.433594 L 151.878906 225.433594 C 150.890625 225.433594 149.914062 225.339844 148.945312 225.148438 C 147.980469 224.953125 147.039062 224.667969 146.128906 224.292969 C 145.214844 223.914062 144.351562 223.453125 143.53125 222.902344 C 142.710938 222.355469 141.953125 221.730469 141.253906 221.035156 C 140.554688 220.335938 139.933594 219.578125 139.386719 218.757812 C 138.835938 217.9375 138.375 217.070312 137.996094 216.160156 C 137.621094 215.25 137.335938 214.308594 137.140625 213.34375 C 136.949219 212.375 136.855469 211.398438 136.855469 210.410156 C 136.855469 209.425781 136.949219 208.449219 137.140625 207.480469 C 137.335938 206.511719 137.621094 205.574219 137.996094 204.660156 C 138.375 203.75 138.835938 202.882812 139.386719 202.0625 C 139.933594 201.242188 140.554688 200.484375 141.253906 199.789062 C 141.953125 199.089844 142.710938 198.46875 143.53125 197.917969 C 144.351562 197.371094 145.214844 196.90625 146.128906 196.53125 C 147.039062 196.152344 147.980469 195.867188 148.945312 195.675781 C 149.914062 195.484375 150.890625 195.386719 151.878906 195.386719 L 196.949219 195.386719 C 197.933594 195.386719 198.910156 195.484375 199.878906 195.675781 C 200.847656 195.867188 201.785156 196.152344 202.695312 196.53125 C 203.609375 196.90625 204.472656 197.371094 205.292969 197.917969 C 206.113281 198.46875 206.875 199.089844 207.570312 199.789062 C 208.269531 200.484375 208.890625 201.242188 209.4375 202.0625 C 209.988281 202.882812 210.449219 203.75 210.828125 204.660156 C 211.207031 205.574219 211.492188 206.511719 211.683594 207.480469 C 211.875 208.449219 211.972656 209.425781 211.972656 210.410156 C 211.972656 211.398438 211.875 212.375 211.683594 213.34375 C 211.492188 214.308594 211.207031 215.25 210.828125 216.160156 C 210.449219 217.070312 209.988281 217.9375 209.4375 218.757812 C 208.890625 219.578125 208.269531 220.335938 207.570312 221.035156 C 206.875 221.730469 206.113281 222.355469 205.292969 222.902344 C 204.472656 223.453125 203.609375 223.914062 202.695312 224.292969 C 201.785156 224.667969 200.847656 224.953125 199.878906 225.148438 C 198.910156 225.339844 197.933594 225.433594 196.949219 225.433594 Z M 196.949219 225.433594 " fill-opacity="1" fill-rule="nonzero"/></g><path fill="#f8ad3b" d="M 450.84375 121.769531 C 448.847656 121.78125 446.925781 121.40625 445.078125 120.652344 C 443.230469 119.898438 441.597656 118.816406 440.179688 117.410156 C 439.472656 116.710938 438.84375 115.953125 438.292969 115.128906 C 437.738281 114.304688 437.269531 113.4375 436.890625 112.523438 C 436.507812 111.605469 436.21875 110.664062 436.027344 109.691406 C 435.832031 108.71875 435.734375 107.734375 435.734375 106.742188 C 435.734375 105.753906 435.832031 104.769531 436.027344 103.796875 C 436.21875 102.824219 436.507812 101.882812 436.890625 100.964844 C 437.269531 100.050781 437.738281 99.179688 438.292969 98.359375 C 438.84375 97.535156 439.472656 96.773438 440.179688 96.078125 L 472.027344 64.226562 C 472.730469 63.527344 473.492188 62.902344 474.3125 62.351562 C 475.136719 61.800781 476.007812 61.335938 476.921875 60.957031 C 477.835938 60.578125 478.78125 60.292969 479.75 60.101562 C 480.722656 59.90625 481.703125 59.8125 482.695312 59.8125 C 483.683594 59.8125 484.664062 59.910156 485.636719 60.101562 C 486.605469 60.296875 487.550781 60.582031 488.464844 60.960938 C 489.378906 61.339844 490.25 61.804688 491.070312 62.355469 C 491.894531 62.90625 492.65625 63.53125 493.355469 64.230469 C 494.058594 64.929688 494.683594 65.691406 495.230469 66.515625 C 495.78125 67.339844 496.246094 68.207031 496.625 69.125 C 497.003906 70.039062 497.292969 70.980469 497.484375 71.953125 C 497.679688 72.921875 497.773438 73.902344 497.773438 74.894531 C 497.773438 75.882812 497.679688 76.863281 497.484375 77.835938 C 497.292969 78.808594 497.007812 79.75 496.628906 80.664062 C 496.25 81.582031 495.785156 82.449219 495.234375 83.273438 C 494.6875 84.097656 494.0625 84.859375 493.363281 85.558594 L 461.511719 117.410156 C 460.09375 118.816406 458.460938 119.898438 456.613281 120.652344 C 454.765625 121.40625 452.839844 121.78125 450.84375 121.769531 Z M 450.84375 121.769531 " fill-opacity="1" fill-rule="nonzero"/><path fill="#f8ad3b" d="M 211.972656 360.652344 C 209.976562 360.664062 208.050781 360.292969 206.203125 359.539062 C 204.355469 358.78125 202.722656 357.703125 201.304688 356.296875 C 200.601562 355.597656 199.972656 354.835938 199.417969 354.015625 C 198.863281 353.191406 198.398438 352.324219 198.015625 351.40625 C 197.636719 350.492188 197.347656 349.546875 197.152344 348.574219 C 196.957031 347.601562 196.859375 346.621094 196.859375 345.628906 C 196.859375 344.636719 196.957031 343.65625 197.152344 342.683594 C 197.347656 341.710938 197.636719 340.765625 198.015625 339.851562 C 198.398438 338.9375 198.863281 338.066406 199.417969 337.242188 C 199.972656 336.421875 200.601562 335.660156 201.304688 334.960938 L 233.15625 303.109375 C 233.855469 302.410156 234.617188 301.785156 235.441406 301.234375 C 236.265625 300.683594 237.132812 300.21875 238.046875 299.839844 C 238.964844 299.460938 239.90625 299.175781 240.878906 298.980469 C 241.851562 298.789062 242.832031 298.691406 243.820312 298.691406 C 244.8125 298.691406 245.792969 298.789062 246.765625 298.980469 C 247.734375 299.175781 248.679688 299.460938 249.59375 299.839844 C 250.507812 300.21875 251.378906 300.683594 252.203125 301.234375 C 253.027344 301.785156 253.789062 302.410156 254.488281 303.109375 C 255.1875 303.8125 255.8125 304.574219 256.363281 305.398438 C 256.914062 306.21875 257.378906 307.089844 257.757812 308.003906 C 258.136719 308.917969 258.421875 309.863281 258.617188 310.835938 C 258.808594 311.804688 258.90625 312.789062 258.90625 313.777344 C 258.90625 314.769531 258.808594 315.75 258.617188 316.722656 C 258.421875 317.691406 258.136719 318.636719 257.757812 319.550781 C 257.378906 320.464844 256.914062 321.335938 256.363281 322.160156 C 255.8125 322.984375 255.1875 323.746094 254.488281 324.445312 L 222.335938 356.597656 C 220.933594 357.910156 219.335938 358.917969 217.542969 359.621094 C 215.753906 360.320312 213.894531 360.664062 211.972656 360.652344 Z M 211.972656 360.652344 " fill-opacity="1" fill-rule="nonzero"/><path fill="#f8ad3b" d="M 211.972656 360.652344 C 209.976562 360.664062 208.050781 360.292969 206.203125 359.539062 C 204.355469 358.78125 202.722656 357.703125 201.304688 356.296875 C 200.601562 355.597656 199.972656 354.835938 199.417969 354.015625 C 198.863281 353.191406 198.398438 352.324219 198.015625 351.40625 C 197.636719 350.492188 197.347656 349.546875 197.152344 348.574219 C 196.957031 347.601562 196.859375 346.621094 196.859375 345.628906 C 196.859375 344.636719 196.957031 343.65625 197.152344 342.683594 C 197.347656 341.710938 197.636719 340.765625 198.015625 339.851562 C 198.398438 338.9375 198.863281 338.066406 199.417969 337.242188 C 199.972656 336.421875 200.601562 335.660156 201.304688 334.960938 L 233.15625 303.109375 C 233.855469 302.410156 234.617188 301.785156 235.441406 301.234375 C 236.265625 300.683594 237.132812 300.21875 238.046875 299.839844 C 238.964844 299.460938 239.90625 299.175781 240.878906 298.980469 C 241.851562 298.789062 242.832031 298.691406 243.820312 298.691406 C 244.8125 298.691406 245.792969 298.789062 246.765625 298.980469 C 247.734375 299.175781 248.679688 299.460938 249.59375 299.839844 C 250.507812 300.21875 251.378906 300.683594 252.203125 301.234375 C 253.027344 301.785156 253.789062 302.410156 254.488281 303.109375 C 255.1875 303.8125 255.8125 304.574219 256.363281 305.398438 C 256.914062 306.21875 257.378906 307.089844 257.757812 308.003906 C 258.136719 308.917969 258.421875 309.863281 258.617188 310.835938 C 258.808594 311.804688 258.90625 312.789062 258.90625 313.777344 C 258.90625 314.769531 258.808594 315.75 258.617188 316.722656 C 258.421875 317.691406 258.136719 318.636719 257.757812 319.550781 C 257.378906 320.464844 256.914062 321.335938 256.363281 322.160156 C 255.8125 322.984375 255.1875 323.746094 254.488281 324.445312 L 222.335938 356.597656 C 220.933594 357.910156 219.335938 358.917969 217.542969 359.621094 C 215.753906 360.320312 213.894531 360.664062 211.972656 360.652344 Z M 211.972656 360.652344 " fill-opacity="1" fill-rule="nonzero"/><path fill="#f8ad3b" d="M 483.898438 360.652344 C 481.898438 360.664062 479.976562 360.292969 478.128906 359.539062 C 476.28125 358.78125 474.648438 357.703125 473.230469 356.296875 L 441.378906 324.445312 C 440.679688 323.746094 440.054688 322.984375 439.5 322.160156 C 438.949219 321.335938 438.484375 320.464844 438.105469 319.550781 C 437.726562 318.636719 437.4375 317.691406 437.246094 316.71875 C 437.050781 315.746094 436.953125 314.765625 436.953125 313.773438 C 436.953125 312.785156 437.050781 311.804688 437.242188 310.832031 C 437.4375 309.859375 437.722656 308.914062 438.101562 308 C 438.480469 307.082031 438.945312 306.214844 439.496094 305.390625 C 440.046875 304.566406 440.671875 303.804688 441.371094 303.101562 C 442.074219 302.402344 442.835938 301.777344 443.660156 301.226562 C 444.484375 300.675781 445.351562 300.210938 446.269531 299.832031 C 447.183594 299.453125 448.128906 299.164062 449.101562 298.972656 C 450.070312 298.78125 451.054688 298.683594 452.042969 298.683594 C 453.035156 298.683594 454.015625 298.78125 454.988281 298.976562 C 455.960938 299.167969 456.902344 299.457031 457.820312 299.835938 C 458.734375 300.214844 459.605469 300.679688 460.429688 301.230469 C 461.25 301.78125 462.011719 302.410156 462.714844 303.109375 L 494.5625 334.960938 C 495.269531 335.660156 495.894531 336.421875 496.449219 337.242188 C 497.003906 338.066406 497.472656 338.9375 497.851562 339.851562 C 498.234375 340.765625 498.519531 341.710938 498.714844 342.683594 C 498.910156 343.65625 499.007812 344.636719 499.007812 345.628906 C 499.007812 346.621094 498.910156 347.601562 498.714844 348.574219 C 498.519531 349.546875 498.234375 350.492188 497.851562 351.40625 C 497.472656 352.324219 497.003906 353.191406 496.449219 354.015625 C 495.894531 354.835938 495.269531 355.597656 494.5625 356.296875 C 493.144531 357.703125 491.511719 358.78125 489.664062 359.539062 C 487.816406 360.292969 485.894531 360.664062 483.898438 360.652344 Z M 483.898438 360.652344 " fill-opacity="1" fill-rule="nonzero"/><path fill="#f8ad3b" d="M 243.519531 121.769531 C 241.523438 121.78125 239.601562 121.40625 237.753906 120.652344 C 235.90625 119.898438 234.273438 118.816406 232.855469 117.410156 L 201.003906 85.558594 C 200.304688 84.859375 199.679688 84.097656 199.128906 83.273438 C 198.578125 82.449219 198.113281 81.582031 197.734375 80.664062 C 197.355469 79.75 197.070312 78.808594 196.875 77.835938 C 196.683594 76.863281 196.585938 75.882812 196.585938 74.894531 C 196.585938 73.902344 196.683594 72.921875 196.875 71.949219 C 197.070312 70.976562 197.355469 70.035156 197.734375 69.121094 C 198.113281 68.203125 198.578125 67.335938 199.128906 66.511719 C 199.679688 65.6875 200.304688 64.925781 201.003906 64.226562 C 201.703125 63.523438 202.464844 62.898438 203.289062 62.347656 C 204.113281 61.800781 204.984375 61.335938 205.898438 60.957031 C 206.8125 60.574219 207.757812 60.289062 208.726562 60.097656 C 209.699219 59.902344 210.679688 59.808594 211.671875 59.808594 C 212.660156 59.808594 213.640625 59.902344 214.613281 60.097656 C 215.585938 60.289062 216.527344 60.574219 217.445312 60.957031 C 218.359375 61.335938 219.226562 61.800781 220.050781 62.347656 C 220.875 62.898438 221.636719 63.523438 222.335938 64.226562 L 254.1875 96.078125 C 254.890625 96.773438 255.519531 97.535156 256.074219 98.359375 C 256.628906 99.179688 257.09375 100.050781 257.476562 100.964844 C 257.855469 101.882812 258.144531 102.824219 258.339844 103.796875 C 258.535156 104.769531 258.632812 105.753906 258.632812 106.742188 C 258.632812 107.734375 258.535156 108.71875 258.339844 109.691406 C 258.144531 110.664062 257.855469 111.605469 257.476562 112.523438 C 257.09375 113.4375 256.628906 114.304688 256.074219 115.128906 C 255.519531 115.953125 254.890625 116.710938 254.1875 117.410156 C 252.769531 118.816406 251.136719 119.898438 249.289062 120.652344 C 247.441406 121.40625 245.515625 121.78125 243.519531 121.769531 Z M 243.519531 121.769531 " fill-opacity="1" fill-rule="nonzero"/><path fill="#cfd6ce" d="M 166.902344 676.164062 L 978.171875 676.164062 L 857.980469 270.507812 L 287.089844 270.507812 Z M 166.902344 676.164062 " fill-opacity="1" fill-rule="nonzero"/><path fill="#00addc" d="M 903.050781 631.089844 L 242.019531 631.089844 L 285.136719 480.246094 L 293.550781 450.796875 L 332.160156 315.582031 L 812.910156 315.582031 Z M 903.050781 631.089844 " fill-opacity="1" fill-rule="nonzero"/><path fill="#b3bfb1" d="M 978.171875 676.164062 L 166.902344 676.164062 L 180.273438 631.089844 L 461.210938 631.089844 C 464.777344 631.089844 468.339844 630.988281 471.898438 630.78125 C 475.457031 630.578125 479.007812 630.269531 482.550781 629.855469 C 486.089844 629.445312 489.617188 628.929688 493.128906 628.3125 C 496.640625 627.695312 500.128906 626.976562 503.601562 626.15625 C 507.070312 625.339844 510.511719 624.417969 513.929688 623.398438 C 517.34375 622.378906 520.730469 621.261719 524.082031 620.042969 C 527.433594 618.828125 530.746094 617.515625 534.019531 616.105469 C 537.296875 614.695312 540.527344 613.191406 543.714844 611.59375 C 546.902344 610 550.039062 608.308594 553.128906 606.53125 C 556.21875 604.75 559.253906 602.882812 562.234375 600.929688 C 565.214844 598.972656 568.136719 596.929688 571 594.804688 C 573.863281 592.679688 576.660156 590.472656 579.394531 588.183594 C 582.128906 585.898438 584.792969 583.53125 587.390625 581.085938 C 589.988281 578.644531 592.511719 576.128906 594.960938 573.539062 C 597.414062 570.949219 599.785156 568.289062 602.082031 565.5625 C 604.378906 562.835938 606.59375 560.042969 608.726562 557.1875 C 610.859375 554.328125 612.910156 551.414062 614.871094 548.4375 C 616.835938 545.460938 618.710938 542.433594 620.5 539.347656 C 622.289062 536.261719 623.984375 533.128906 625.59375 529.945312 C 627.199219 526.761719 628.710938 523.535156 630.128906 520.265625 C 631.546875 516.992188 632.867188 513.683594 634.09375 510.335938 C 635.320312 506.988281 636.449219 503.605469 637.480469 500.191406 C 638.507812 496.78125 639.4375 493.339844 640.269531 489.871094 C 641.097656 486.402344 641.824219 482.914062 642.453125 479.40625 C 643.078125 475.894531 643.605469 472.371094 644.027344 468.832031 C 644.449219 465.289062 644.765625 461.738281 644.984375 458.179688 C 645.199219 454.621094 645.3125 451.058594 645.320312 447.496094 C 645.328125 443.929688 645.234375 440.367188 645.035156 436.808594 C 644.835938 433.246094 644.535156 429.695312 644.128906 426.152344 C 643.726562 422.609375 643.21875 419.082031 642.609375 415.570312 C 642 412.058594 641.289062 408.566406 640.476562 405.09375 C 639.664062 401.621094 638.75 398.175781 637.738281 394.757812 L 614.300781 315.582031 L 600.929688 270.507812 L 857.980469 270.507812 Z M 978.171875 676.164062 " fill-opacity="1" fill-rule="nonzero"/><path fill="#02a0c4" d="M 903.050781 631.089844 L 461.210938 631.089844 C 464.777344 631.089844 468.339844 630.988281 471.898438 630.78125 C 475.457031 630.578125 479.007812 630.269531 482.550781 629.855469 C 486.089844 629.445312 489.617188 628.929688 493.128906 628.3125 C 496.640625 627.695312 500.128906 626.976562 503.601562 626.15625 C 507.070312 625.339844 510.511719 624.417969 513.929688 623.398438 C 517.34375 622.378906 520.730469 621.261719 524.082031 620.042969 C 527.433594 618.828125 530.746094 617.515625 534.019531 616.105469 C 537.296875 614.695312 540.527344 613.191406 543.714844 611.59375 C 546.902344 610 550.039062 608.308594 553.128906 606.53125 C 556.21875 604.75 559.253906 602.882812 562.234375 600.929688 C 565.214844 598.972656 568.136719 596.929688 571 594.804688 C 573.863281 592.679688 576.660156 590.472656 579.394531 588.183594 C 582.128906 585.898438 584.792969 583.53125 587.390625 581.085938 C 589.988281 578.644531 592.511719 576.128906 594.960938 573.539062 C 597.414062 570.949219 599.785156 568.289062 602.082031 565.5625 C 604.378906 562.835938 606.59375 560.042969 608.726562 557.1875 C 610.859375 554.328125 612.910156 551.414062 614.871094 548.4375 C 616.835938 545.460938 618.710938 542.433594 620.5 539.347656 C 622.289062 536.261719 623.984375 533.128906 625.59375 529.945312 C 627.199219 526.761719 628.710938 523.535156 630.128906 520.265625 C 631.546875 516.992188 632.867188 513.683594 634.09375 510.335938 C 635.320312 506.988281 636.449219 503.605469 637.480469 500.191406 C 638.507812 496.78125 639.4375 493.339844 640.269531 489.871094 C 641.097656 486.402344 641.824219 482.914062 642.453125 479.40625 C 643.078125 475.894531 643.605469 472.371094 644.027344 468.832031 C 644.449219 465.289062 644.765625 461.738281 644.984375 458.179688 C 645.199219 454.621094 645.3125 451.058594 645.320312 447.496094 C 645.328125 443.929688 645.234375 440.367188 645.035156 436.808594 C 644.835938 433.246094 644.535156 429.695312 644.128906 426.152344 C 643.726562 422.609375 643.21875 419.082031 642.609375 415.570312 C 642 412.058594 641.289062 408.566406 640.476562 405.09375 C 639.664062 401.621094 638.75 398.175781 637.738281 394.757812 L 614.300781 315.582031 L 812.910156 315.582031 Z M 903.050781 631.089844 " fill-opacity="1" fill-rule="nonzero"/><g clip-path="url(#4d51d037cd)"><path fill="#cfd6ce" d="M 332.160156 781.332031 L 812.910156 781.332031 C 814.878906 781.332031 816.84375 781.429688 818.800781 781.621094 C 820.761719 781.8125 822.703125 782.101562 824.636719 782.488281 C 826.566406 782.871094 828.472656 783.347656 830.355469 783.917969 C 832.238281 784.492188 834.089844 785.152344 835.910156 785.90625 C 837.726562 786.660156 839.503906 787.5 841.238281 788.429688 C 842.976562 789.355469 844.660156 790.367188 846.296875 791.460938 C 847.933594 792.554688 849.511719 793.722656 851.035156 794.972656 C 852.554688 796.222656 854.011719 797.542969 855.40625 798.933594 C 856.796875 800.324219 858.117188 801.78125 859.363281 803.304688 C 860.613281 804.824219 861.785156 806.402344 862.878906 808.039062 C 863.972656 809.675781 864.980469 811.363281 865.910156 813.097656 C 866.835938 814.835938 867.679688 816.613281 868.429688 818.429688 C 869.183594 820.25 869.847656 822.101562 870.417969 823.984375 C 870.988281 825.867188 871.46875 827.773438 871.851562 829.703125 C 872.234375 831.636719 872.523438 833.578125 872.714844 835.539062 C 872.910156 837.496094 873.003906 839.460938 873.003906 841.429688 L 272.066406 841.429688 C 272.066406 839.460938 272.160156 837.496094 272.355469 835.539062 C 272.546875 833.578125 272.835938 831.636719 273.21875 829.703125 C 273.605469 827.773438 274.082031 825.867188 274.652344 823.984375 C 275.222656 822.101562 275.886719 820.25 276.640625 818.429688 C 277.394531 816.613281 278.234375 814.835938 279.160156 813.097656 C 280.089844 811.363281 281.101562 809.675781 282.191406 808.039062 C 283.285156 806.402344 284.457031 804.824219 285.707031 803.304688 C 286.953125 801.78125 288.273438 800.324219 289.667969 798.933594 C 291.058594 797.542969 292.515625 796.222656 294.035156 794.972656 C 295.558594 793.722656 297.136719 792.554688 298.773438 791.460938 C 300.410156 790.367188 302.09375 789.355469 303.832031 788.429688 C 305.566406 787.5 307.34375 786.660156 309.164062 785.90625 C 310.980469 785.152344 312.832031 784.492188 314.714844 783.917969 C 316.597656 783.347656 318.503906 782.871094 320.4375 782.488281 C 322.367188 782.101562 324.308594 781.8125 326.269531 781.621094 C 328.226562 781.429688 330.191406 781.332031 332.160156 781.332031 Z M 332.160156 781.332031 " fill-opacity="1" fill-rule="nonzero"/><path fill="#b3bfb1" d="M 873.003906 841.429688 L 272.066406 841.429688 C 272.074219 836.152344 272.765625 830.964844 274.144531 825.871094 C 275.519531 820.773438 277.53125 815.945312 280.179688 811.378906 L 750.414062 811.378906 C 751.429688 811.386719 752.441406 811.347656 753.453125 811.257812 C 754.464844 811.171875 755.472656 811.035156 756.472656 810.851562 C 757.46875 810.667969 758.457031 810.4375 759.433594 810.160156 C 760.414062 809.886719 761.375 809.5625 762.320312 809.195312 C 763.269531 808.828125 764.195312 808.417969 765.105469 807.964844 C 766.011719 807.507812 766.894531 807.011719 767.757812 806.472656 C 768.617188 805.9375 769.453125 805.359375 770.261719 804.742188 C 771.066406 804.125 771.84375 803.472656 772.589844 802.78125 C 773.332031 802.089844 774.042969 801.367188 774.722656 800.609375 C 775.398438 799.851562 776.039062 799.066406 776.640625 798.25 C 777.242188 797.429688 777.804688 796.585938 778.328125 795.714844 C 778.851562 794.847656 779.332031 793.953125 779.773438 793.035156 C 780.210938 792.121094 780.605469 791.1875 780.957031 790.234375 C 781.308594 789.28125 781.613281 788.3125 781.871094 787.332031 C 782.132812 786.347656 782.34375 785.355469 782.507812 784.355469 C 782.675781 783.351562 782.792969 782.34375 782.863281 781.332031 L 812.910156 781.332031 C 814.878906 781.332031 816.84375 781.429688 818.800781 781.621094 C 820.761719 781.8125 822.703125 782.101562 824.636719 782.488281 C 826.566406 782.871094 828.472656 783.347656 830.355469 783.917969 C 832.238281 784.492188 834.089844 785.152344 835.910156 785.90625 C 837.726562 786.660156 839.503906 787.5 841.238281 788.429688 C 842.976562 789.355469 844.660156 790.367188 846.296875 791.460938 C 847.933594 792.554688 849.511719 793.722656 851.035156 794.972656 C 852.554688 796.222656 854.011719 797.542969 855.40625 798.933594 C 856.796875 800.324219 858.117188 801.78125 859.363281 803.304688 C 860.613281 804.824219 861.785156 806.402344 862.878906 808.039062 C 863.972656 809.675781 864.980469 811.363281 865.910156 813.097656 C 866.835938 814.835938 867.679688 816.613281 868.429688 818.429688 C 869.183594 820.25 869.847656 822.101562 870.417969 823.984375 C 870.988281 825.867188 871.46875 827.773438 871.851562 829.703125 C 872.234375 831.636719 872.523438 833.578125 872.714844 835.539062 C 872.910156 837.496094 873.003906 839.460938 873.003906 841.429688 Z M 873.003906 841.429688 " fill-opacity="1" fill-rule="nonzero"/></g><path fill="#b3bfb1" d="M 332.160156 676.164062 L 812.910156 676.164062 L 812.910156 781.332031 L 332.160156 781.332031 Z M 332.160156 676.164062 " fill-opacity="1" fill-rule="nonzero"/><path fill="#80877e" d="M 812.910156 676.164062 L 812.910156 781.332031 L 782.863281 781.332031 C 782.863281 780.101562 782.835938 778.875 782.773438 777.644531 C 782.714844 776.417969 782.625 775.191406 782.503906 773.96875 C 782.382812 772.746094 782.230469 771.527344 782.050781 770.308594 C 781.871094 769.09375 781.660156 767.882812 781.421875 766.675781 C 781.179688 765.46875 780.910156 764.269531 780.613281 763.078125 C 780.316406 761.886719 779.988281 760.703125 779.628906 759.523438 C 779.273438 758.347656 778.886719 757.183594 778.472656 756.023438 C 778.058594 754.867188 777.617188 753.71875 777.148438 752.585938 C 776.675781 751.449219 776.179688 750.324219 775.652344 749.214844 C 775.125 748.101562 774.574219 747.003906 773.996094 745.917969 C 773.414062 744.835938 772.808594 743.765625 772.175781 742.710938 C 771.546875 741.65625 770.886719 740.617188 770.203125 739.597656 C 769.523438 738.574219 768.8125 737.570312 768.082031 736.582031 C 767.351562 735.59375 766.59375 734.625 765.8125 733.675781 C 765.035156 732.726562 764.230469 731.792969 763.40625 730.882812 C 762.578125 729.972656 761.734375 729.082031 760.863281 728.214844 C 759.992188 727.34375 759.105469 726.496094 758.191406 725.671875 C 757.28125 724.84375 756.351562 724.042969 755.402344 723.261719 C 754.449219 722.480469 753.480469 721.726562 752.496094 720.992188 C 751.507812 720.261719 750.503906 719.554688 749.480469 718.871094 C 748.457031 718.1875 747.417969 717.53125 746.363281 716.898438 C 745.3125 716.265625 744.242188 715.660156 743.15625 715.082031 C 742.074219 714.5 740.976562 713.949219 739.863281 713.421875 C 738.753906 712.898438 737.628906 712.398438 736.492188 711.929688 C 735.359375 711.457031 734.210938 711.015625 733.054688 710.601562 C 731.894531 710.1875 730.730469 709.800781 729.550781 709.445312 C 728.375 709.089844 727.191406 708.761719 726 708.460938 C 724.804688 708.164062 723.609375 707.894531 722.402344 707.652344 C 721.195312 707.414062 719.984375 707.203125 718.769531 707.023438 C 717.554688 706.84375 716.332031 706.691406 715.109375 706.574219 C 713.886719 706.453125 712.660156 706.363281 711.433594 706.300781 C 710.203125 706.242188 708.976562 706.210938 707.746094 706.210938 L 332.160156 706.210938 L 332.160156 676.164062 Z M 812.910156 676.164062 " fill-opacity="1" fill-rule="nonzero"/><path fill="#0c6f89" d="M 557.511719 315.582031 L 587.558594 315.582031 L 587.558594 631.089844 L 557.511719 631.089844 Z M 557.511719 315.582031 " fill-opacity="1" fill-rule="nonzero"/><path fill="#0c6f89" d="M 469.023438 315.582031 C 469.097656 316.332031 469.097656 317.082031 469.023438 317.835938 L 449.191406 450.796875 L 444.683594 480.847656 L 422.300781 631.089844 L 392.253906 631.089844 C 392.179688 630.339844 392.179688 629.585938 392.253906 628.835938 L 414.339844 480.847656 L 418.695312 450.796875 L 438.828125 315.582031 Z M 469.023438 315.582031 " fill-opacity="1" fill-rule="nonzero"/><path fill="#0c6f89" d="M 754.46875 631.089844 L 724.421875 631.089844 L 702.039062 480.847656 L 697.53125 450.796875 L 677.699219 317.835938 C 677.625 317.082031 677.625 316.332031 677.699219 315.582031 L 707.746094 315.582031 L 727.878906 450.796875 L 732.234375 480.847656 L 754.167969 628.835938 C 754.34375 629.578125 754.445312 630.328125 754.46875 631.089844 Z M 754.46875 631.089844 " fill-opacity="1" fill-rule="nonzero"/><path fill="#0c6f89" d="M 827.933594 465.824219 C 827.933594 466.808594 827.839844 467.785156 827.644531 468.753906 C 827.453125 469.722656 827.167969 470.660156 826.792969 471.574219 C 826.414062 472.484375 825.949219 473.351562 825.402344 474.171875 C 824.855469 474.988281 824.230469 475.75 823.535156 476.445312 C 822.835938 477.144531 822.078125 477.765625 821.257812 478.316406 C 820.4375 478.863281 819.570312 479.324219 818.660156 479.703125 C 817.75 480.082031 816.808594 480.367188 815.84375 480.558594 C 814.875 480.75 813.898438 480.847656 812.910156 480.847656 L 289.191406 480.847656 C 287.839844 481.078125 286.488281 481.078125 285.136719 480.847656 L 293.550781 450.796875 L 812.910156 450.796875 C 813.898438 450.796875 814.875 450.894531 815.84375 451.085938 C 816.808594 451.28125 817.75 451.566406 818.660156 451.941406 C 819.570312 452.320312 820.4375 452.78125 821.257812 453.332031 C 822.078125 453.878906 822.835938 454.5 823.535156 455.199219 C 824.230469 455.898438 824.855469 456.65625 825.402344 457.476562 C 825.949219 458.296875 826.414062 459.160156 826.792969 460.074219 C 827.167969 460.984375 827.453125 461.925781 827.644531 462.890625 C 827.839844 463.859375 827.933594 464.835938 827.933594 465.824219 Z M 827.933594 465.824219 " fill-opacity="1" fill-rule="nonzero"/><g clip-path="url(#346eec4de3)"><path fill="#cfd6ce" d="M 812.910156 240.460938 L 1053.289062 240.460938 L 1053.289062 841.429688 L 812.910156 841.429688 Z M 812.910156 240.460938 " fill-opacity="1" fill-rule="nonzero"/></g><path fill="#00a651" d="M 1008.21875 360.652344 L 857.980469 405.726562 L 857.980469 796.355469 L 1008.21875 796.355469 Z M 1008.21875 360.652344 " fill-opacity="1" fill-rule="nonzero"/><g clip-path="url(#e1e3f10d86)"><path fill="#b3bfb1" d="M 1053.289062 240.460938 L 1053.289062 841.429688 L 812.910156 841.429688 L 812.910156 796.355469 C 816.148438 796.273438 819.378906 796.113281 822.605469 795.875 C 825.835938 795.632812 829.054688 795.316406 832.269531 794.921875 C 835.480469 794.527344 838.679688 794.054688 841.871094 793.503906 C 845.0625 792.953125 848.234375 792.328125 851.394531 791.625 C 854.554688 790.917969 857.695312 790.140625 860.816406 789.28125 C 863.9375 788.425781 867.035156 787.496094 870.113281 786.488281 C 873.1875 785.484375 876.238281 784.402344 879.261719 783.25 C 882.289062 782.09375 885.28125 780.867188 888.246094 779.570312 C 891.210938 778.269531 894.140625 776.898438 897.039062 775.457031 C 899.9375 774.015625 902.800781 772.507812 905.625 770.925781 C 908.449219 769.347656 911.234375 767.699219 913.980469 765.984375 C 916.726562 764.269531 919.429688 762.488281 922.085938 760.644531 C 924.746094 758.796875 927.359375 756.886719 929.925781 754.914062 C 932.492188 752.945312 935.007812 750.910156 937.476562 748.816406 C 939.945312 746.722656 942.359375 744.570312 944.722656 742.355469 C 947.085938 740.144531 949.398438 737.878906 951.652344 735.554688 C 953.902344 733.230469 956.101562 730.855469 958.238281 728.425781 C 960.378906 725.996094 962.457031 723.515625 964.476562 720.984375 C 966.492188 718.457031 968.449219 715.878906 970.34375 713.253906 C 972.238281 710.628906 974.066406 707.957031 975.828125 705.242188 C 977.59375 702.53125 979.292969 699.773438 980.921875 696.980469 C 982.554688 694.183594 984.117188 691.347656 985.609375 688.476562 C 987.101562 685.605469 988.527344 682.699219 989.878906 679.757812 C 991.230469 676.816406 992.511719 673.847656 993.71875 670.84375 C 994.929688 667.839844 996.066406 664.808594 997.125 661.753906 C 998.1875 658.695312 999.175781 655.613281 1000.089844 652.507812 C 1001 649.402344 1001.835938 646.277344 1002.597656 643.128906 C 1003.359375 639.984375 1004.042969 636.820312 1004.652344 633.640625 C 1005.261719 630.460938 1005.792969 627.269531 1006.246094 624.066406 C 1006.699219 620.859375 1007.074219 617.644531 1007.371094 614.421875 C 1007.667969 611.199219 1007.886719 607.972656 1008.027344 604.738281 C 1008.171875 601.503906 1008.234375 598.269531 1008.21875 595.03125 L 1008.21875 240.460938 Z M 1053.289062 240.460938 " fill-opacity="1" fill-rule="nonzero"/></g><path fill="#038e42" d="M 1008.21875 595.03125 L 1008.21875 796.355469 L 857.980469 796.355469 L 857.980469 789.894531 C 860.648438 789.191406 863.296875 788.4375 865.933594 787.625 C 868.570312 786.8125 871.1875 785.949219 873.785156 785.03125 C 876.386719 784.109375 878.964844 783.140625 881.523438 782.113281 C 884.082031 781.089844 886.621094 780.011719 889.136719 778.882812 C 891.652344 777.753906 894.144531 776.574219 896.609375 775.34375 C 899.078125 774.113281 901.519531 772.832031 903.933594 771.503906 C 906.347656 770.171875 908.734375 768.792969 911.089844 767.363281 C 913.449219 765.933594 915.777344 764.457031 918.074219 762.933594 C 920.371094 761.40625 922.636719 759.835938 924.871094 758.21875 C 927.101562 756.601562 929.300781 754.941406 931.464844 753.230469 C 933.628906 751.523438 935.757812 749.773438 937.851562 747.976562 C 939.945312 746.183594 942 744.347656 944.015625 742.46875 C 946.035156 740.589844 948.011719 738.667969 949.953125 736.707031 C 951.890625 734.746094 953.789062 732.746094 955.644531 730.710938 C 957.5 728.671875 959.316406 726.597656 961.085938 724.484375 C 962.859375 722.371094 964.585938 720.222656 966.269531 718.039062 C 967.953125 715.855469 969.589844 713.636719 971.183594 711.386719 C 972.777344 709.136719 974.320312 706.855469 975.820312 704.539062 C 977.320312 702.226562 978.769531 699.882812 980.171875 697.507812 C 981.574219 695.136719 982.929688 692.734375 984.234375 690.304688 C 985.539062 687.875 986.792969 685.421875 987.996094 682.941406 C 989.199219 680.460938 990.351562 677.953125 991.453125 675.425781 C 992.550781 672.898438 993.601562 670.351562 994.597656 667.777344 C 995.59375 665.207031 996.535156 662.617188 997.425781 660.007812 C 998.316406 657.398438 999.152344 654.773438 999.933594 652.128906 C 1000.714844 649.484375 1001.445312 646.824219 1002.117188 644.152344 C 1002.789062 641.476562 1003.40625 638.789062 1003.96875 636.09375 C 1004.535156 633.394531 1005.039062 630.683594 1005.492188 627.964844 C 1005.945312 625.242188 1006.339844 622.515625 1006.679688 619.777344 C 1007.019531 617.042969 1007.304688 614.300781 1007.53125 611.554688 C 1007.757812 608.804688 1007.929688 606.054688 1008.042969 603.300781 C 1008.15625 600.542969 1008.214844 597.789062 1008.21875 595.03125 Z M 1008.21875 595.03125 " fill-opacity="1" fill-rule="nonzero"/><path fill="#dde2dc" d="M 873.003906 180.363281 L 993.195312 180.363281 L 993.195312 240.460938 L 873.003906 240.460938 Z M 873.003906 180.363281 " fill-opacity="1" fill-rule="nonzero"/><path fill="#ffe100" d="M 918.074219 676.164062 C 915.328125 676.160156 912.777344 675.460938 910.414062 674.058594 C 909.566406 673.554688 908.773438 672.972656 908.042969 672.316406 C 907.308594 671.65625 906.644531 670.933594 906.054688 670.144531 C 905.460938 669.351562 904.953125 668.515625 904.527344 667.625 C 904.101562 666.734375 903.765625 665.8125 903.523438 664.855469 C 903.277344 663.902344 903.128906 662.929688 903.078125 661.945312 C 903.023438 660.960938 903.066406 659.980469 903.207031 659.003906 C 903.347656 658.027344 903.582031 657.074219 903.910156 656.144531 C 904.238281 655.214844 904.652344 654.324219 905.15625 653.476562 L 936.554688 601.042969 L 918.074219 601.042969 C 916.6875 601.035156 915.328125 600.84375 913.996094 600.464844 C 912.660156 600.082031 911.402344 599.527344 910.222656 598.796875 C 909.042969 598.070312 907.984375 597.191406 907.046875 596.171875 C 906.109375 595.148438 905.328125 594.015625 904.707031 592.777344 C 904.074219 591.53125 903.621094 590.21875 903.355469 588.847656 C 903.089844 587.472656 903.015625 586.089844 903.132812 584.699219 C 903.253906 583.304688 903.5625 581.953125 904.058594 580.644531 C 904.554688 579.339844 905.222656 578.125 906.058594 577.003906 L 951.128906 516.90625 C 951.71875 516.117188 952.382812 515.390625 953.117188 514.730469 C 953.851562 514.070312 954.644531 513.488281 955.492188 512.988281 C 956.339844 512.484375 957.230469 512.066406 958.160156 511.738281 C 959.09375 511.410156 960.046875 511.175781 961.023438 511.039062 C 962 510.898438 962.980469 510.855469 963.96875 510.90625 C 964.953125 510.960938 965.921875 511.109375 966.878906 511.355469 C 967.835938 511.597656 968.757812 511.933594 969.648438 512.363281 C 970.539062 512.789062 971.378906 513.296875 972.167969 513.890625 C 972.957031 514.484375 973.683594 515.144531 974.339844 515.882812 C 975 516.617188 975.582031 517.410156 976.082031 518.257812 C 976.585938 519.105469 977 519.996094 977.328125 520.929688 C 977.65625 521.859375 977.886719 522.8125 978.027344 523.792969 C 978.167969 524.769531 978.210938 525.75 978.15625 526.734375 C 978.101562 527.722656 977.949219 528.691406 977.707031 529.648438 C 977.460938 530.605469 977.125 531.527344 976.695312 532.417969 C 976.269531 533.304688 975.757812 534.144531 975.164062 534.933594 L 948.125 570.992188 L 963.148438 570.992188 C 964.472656 570.992188 965.777344 571.164062 967.054688 571.511719 C 968.335938 571.855469 969.550781 572.363281 970.695312 573.027344 C 971.839844 573.695312 972.882812 574.5 973.816406 575.441406 C 974.746094 576.382812 975.542969 577.429688 976.199219 578.582031 C 976.855469 579.734375 977.351562 580.953125 977.683594 582.234375 C 978.015625 583.515625 978.179688 584.820312 978.167969 586.148438 C 978.15625 587.472656 977.972656 588.777344 977.617188 590.050781 C 977.257812 591.328125 976.742188 592.539062 976.066406 593.679688 L 930.996094 668.800781 C 930.332031 669.921875 929.535156 670.9375 928.605469 671.851562 C 927.675781 672.765625 926.644531 673.546875 925.511719 674.191406 C 924.378906 674.835938 923.183594 675.328125 921.921875 675.660156 C 920.660156 675.996094 919.378906 676.160156 918.074219 676.164062 Z M 918.074219 676.164062 " fill-opacity="1" fill-rule="nonzero"/></svg>